<svg xmlns="http://www.w3.org/2000/svg" width="32" height="32" viewBox="0 0 32 32">
  <g fill="none" fill-rule="evenodd">
    <polygon fill="#000" fill-opacity=".05" points="6 1 6 31 26 31 26 11 16 11 16 1"/>
    <path stroke="#151516" d="M16.5,10.5 L26.5,10.5 L26.5,31.5 L5.5,31.5 L5.5,0.5 L16.5,0.5 L16.5,10.5 Z" opacity=".65"/>
    <path fill="none" stroke="#FFF" d="M5.5,0.5 L17.2071068,0.5 L26.5,9.79289322 L26.5,31.5 L5.5,31.5 L5.5,0.5 Z"/>
    <path stroke="#000" d="M5.5,0.5 L17.2071068,0.5 L26.5,9.79289322 L26.5,31.5 L5.5,31.5 L5.5,0.5 Z" opacity=".65"/>
    <path fill="#000" fill-opacity=".2" fill-rule="nonzero" d="M16,11 L26,11 L26,12 L16,12 L15,12 L15,1 L16,1 L16,11 Z"/>
    <g fill="#FF274B" fill-rule="nonzero">
      <path d="M22.1334483,22.3697931 C21.6179935,22.3704706 21.1094397,22.488338 20.6462414,22.7144828 C20.5012166,22.4738155 20.3892239,22.2147338 20.3132759,21.9442069 C20.2696397,21.7321517 20.2595514,21.5145623 20.2833793,21.2993793 C20.3334856,21.0625968 20.3984884,20.8292132 20.478,20.6006207 C20.475069,20.5707241 20.4422414,20.4294483 20.1122069,20.4247586 C19.7821724,20.420069 19.4978621,20.4874828 19.4673793,20.5748276 C19.4100613,20.734364 19.3640283,20.8977321 19.3296207,21.0637241 C19.0564764,21.737577 18.7202573,22.3841069 18.3254483,22.9946897 C18.1042511,22.6320652 18.013271,22.2048724 18.0675172,21.7835862 C18.1176235,21.5468037 18.1826264,21.3134201 18.2621379,21.0848276 C18.2592069,21.054931 18.2263793,20.9136552 17.8963448,20.9089655 C17.5663103,20.9042759 17.282,20.9716897 17.2515172,21.0590345 C17.2210345,21.1463793 17.1823448,21.3521379 17.1137586,21.547931 C17.0451724,21.7437241 16.2444138,23.5328276 16.0345517,23.9941724 C15.9266897,24.2286552 15.8334828,24.4197586 15.7678276,24.5487241 C15.7647151,24.5570998 15.7607882,24.5651499 15.7561034,24.5727586 C15.6974828,24.6835517 15.6664138,24.743931 15.6664138,24.743931 L15.6664138,24.7468621 C15.6212759,24.8277586 15.5732069,24.9027931 15.5491724,24.9027931 C15.5072513,24.735314 15.5092704,24.5598494 15.5550345,24.3933793 C15.6722759,23.7725862 15.9595172,22.8076897 15.9565862,22.7742759 C15.9565862,22.7561034 16.0105172,22.5884483 15.7707586,22.5016897 C15.6568044,22.4474614 15.5210429,22.4709496 15.431931,22.5603103 C15.4108276,22.5603103 15.3961724,22.6113103 15.3961724,22.6113103 C15.3961724,22.6113103 15.6570345,21.5262414 14.8984828,21.5262414 C14.3017258,21.6462788 13.7786296,22.0019842 13.4476207,22.5128276 C13.2436207,22.6236207 12.8092414,22.8604483 12.3443793,23.1154483 C12.1685172,23.2145172 11.9844483,23.3135862 11.8138621,23.4085517 C11.8021379,23.3968276 11.7898276,23.3815862 11.7781034,23.3698621 C10.8548276,22.3862069 9.15775862,21.6921379 9.23103448,20.3761034 C9.258,19.8965862 9.42272414,18.6374138 12.4897586,17.108 C15.0139655,15.864069 17.0228966,16.2087586 17.3705172,16.9731724 C17.8682069,18.0646897 16.2942414,20.0912069 13.6862069,20.3848966 C13.1017702,20.5034682 12.4951141,20.3501328 12.0372069,19.9681034 C11.8994483,19.8180345 11.8783448,19.8092414 11.8273448,19.8391379 C11.7435172,19.8842759 11.7974483,20.0191034 11.8273448,20.097069 C12.0283504,20.4608298 12.3678996,20.72786 12.7687931,20.8374483 C13.794792,21.0591626 14.8645076,20.9531547 15.8270345,20.5343793 C17.4097931,19.9229655 18.6408276,18.2229655 18.2797241,16.799069 C17.9168621,15.354069 15.5186897,14.8774828 13.2488966,15.6852759 C11.827198,16.1636642 10.5135553,16.9171912 9.38286207,17.9028966 C8.13248276,19.0723793 7.93493103,20.0882759 8.01582759,20.5144483 C8.30893103,22.0256897 10.3905517,23.0087586 11.2235517,23.7385862 C11.1813448,23.7626207 11.1426552,23.7837241 11.1098276,23.8013103 C10.6930345,24.0082414 9.10441379,24.8388966 8.70637931,25.7170345 C8.25675862,26.7135862 8.77848276,27.4258276 9.12317241,27.5219655 C10.1879214,27.7768388 11.2970377,27.3275407 11.8842069,26.4034828 C12.3792354,25.644646 12.47184,24.6916719 12.1321724,23.8517241 C12.129346,23.8450336 12.125379,23.8388847 12.1204483,23.8335517 L12.4469655,23.6418621 C12.6597586,23.5158276 12.8696207,23.3991724 13.0495862,23.3030345 C12.9275504,23.6550219 12.8559099,24.0225001 12.8367931,24.3945517 C12.7953582,24.9647966 12.9698729,25.5297721 13.3256897,25.9773103 C13.4350519,26.07145 13.5775481,26.1178932 13.7213793,26.1062759 C14.0731034,26.1062759 14.2343103,25.8131724 14.4107586,25.4649655 C14.6264828,25.0393793 14.8211034,24.5446207 14.8211034,24.5446207 C14.8211034,24.5446207 14.5784138,25.8817586 15.2378966,25.8817586 C15.4776552,25.8817586 15.7203448,25.5698966 15.8287931,25.4127931 L15.8287931,25.4157241 C15.8287931,25.4157241 15.8346552,25.406931 15.8469655,25.3858276 L15.8856552,25.3231034 L15.8856552,25.3172414 C15.9817931,25.1495862 16.1975172,24.7685517 16.5181724,24.1360345 C16.9320345,23.3206207 17.3306552,22.3012069 17.3306552,22.3012069 C17.3691027,22.5252405 17.4221702,22.7465179 17.4895172,22.9636207 C17.5860688,23.2267895 17.7002471,23.4831521 17.8312759,23.7309655 C17.7351379,23.8657931 17.6753448,23.9408276 17.6753448,23.9408276 L17.6782759,23.9437586 C17.6003103,24.0457586 17.5164828,24.1565517 17.4232759,24.2644138 C17.1459644,24.5692929 16.8886684,24.891794 16.653,25.2298966 C16.5803177,25.3477715 16.6119041,25.5018515 16.7251034,25.5816207 C16.848507,25.6458323 16.9891662,25.669036 17.1266552,25.6478621 C17.3338472,25.636164 17.5375804,25.5895907 17.7292759,25.5101034 C17.9145243,25.4449118 18.0892898,25.3530859 18.248069,25.2375172 C18.5809562,25.0068941 18.7695725,24.6194419 18.7457586,24.2151724 C18.7273257,23.9647659 18.6633587,23.7198239 18.557,23.4923793 C18.5868966,23.4501724 18.6156207,23.4085517 18.6437586,23.3663448 C18.9770376,22.8688811 19.2774257,22.3501534 19.543,21.8134828 C19.5814476,22.0375163 19.634515,22.2587937 19.7018621,22.4758966 C19.7814963,22.7033173 19.8795215,22.923874 19.9949655,23.1353793 C19.6115536,23.4303648 19.309552,23.8181049 19.1174138,24.262069 C18.9286552,24.8078276 19.0752069,25.0534483 19.3518966,25.1103103 C19.5032993,25.1207465 19.6546848,25.0897398 19.7897931,25.0206207 C19.988444,24.9553332 20.1755835,24.8591918 20.3443448,24.7357241 C20.7058244,24.5223897 20.9356361,24.1414267 20.9557586,23.7221724 C20.942451,23.516159 20.8959315,23.313651 20.818,23.1224828 C21.323956,22.9248175 21.8725394,22.8617991 22.4101379,22.9395862 C23.8369655,23.1072414 24.118931,23.9976897 24.065,24.3728621 C24.0138273,24.6419496 23.8488235,24.8757762 23.6124483,25.0141724 C23.5133793,25.0768966 23.4805517,25.098 23.4893448,25.1431379 C23.501069,25.2093793 23.5479655,25.2058621 23.6329655,25.1941379 C24.0731792,25.0573162 24.3836145,24.6634455 24.4137931,24.2034483 C24.458931,23.3241379 23.6194828,22.3598276 22.1352069,22.3686207 L22.1334483,22.3697931 Z M11.1244828,26.0793103 C10.6508276,26.5951724 9.99134483,26.7897931 9.70644828,26.625069 C9.40044828,26.4492069 9.52062069,25.6871379 10.1021379,25.1407931 C10.4470909,24.8302738 10.8199326,24.5522124 11.215931,24.3101379 C11.2851034,24.267931 11.3871034,24.2081379 11.5090345,24.1342759 L11.5418621,24.1161034 L11.6139655,24.0709655 C11.8254921,24.7796855 11.6383826,25.5473945 11.1244828,26.0793103 Z M14.5719655,23.7344828 C14.4072414,24.1360345 14.0625517,25.1648276 13.8526897,25.1073793 C13.6727241,25.0593103 13.5595862,24.2796552 13.816931,23.5093793 C13.9468643,23.1385756 14.1361305,22.7913235 14.3773448,22.4811724 C14.6352759,22.1933448 14.9201724,22.0972069 14.9887586,22.2144483 C14.9261848,22.7390328 14.785708,23.2513487 14.5719655,23.7344828 Z M17.4168276,25.0956552 C17.3476552,25.1314138 17.282,25.1542759 17.2521034,25.1378621 C17.231,25.1261379 17.282,25.0792414 17.282,25.0792414 C17.282,25.0792414 17.639,24.6952759 17.7796897,24.5217586 C17.8605862,24.4197586 17.9555517,24.3001724 18.0587241,24.1647586 L18.0587241,24.2034483 C18.0587241,24.6618621 17.6149655,24.9707931 17.4174138,25.0968276 L17.4168276,25.0956552 Z M19.6115862,24.5950345 C19.5605862,24.5592759 19.5693793,24.4391034 19.7405517,24.0645172 C19.8595701,23.8239442 20.0258448,23.6098207 20.2294483,23.434931 C20.260659,23.5236664 20.2769034,23.6169723 20.2775172,23.7110345 C20.2822662,24.1227487 20.0090512,24.4859923 19.6121724,24.5956207 L19.6115862,24.5950345 Z"/>
    </g>
  </g>
</svg>
