<svg xmlns="http://www.w3.org/2000/svg" xmlns:xlink="http://www.w3.org/1999/xlink" width="32" height="32" viewBox="0 0 32 32">
  <defs>
    <circle id="file-react-logo-a" cx="8" cy="7.414" r="1.429"/>
    <path id="file-react-logo-b" d="M8,10.6891429 C6.28293408,10.7306762 4.57016855,10.4992214 2.92571429,10.0034286 C2.16606956,9.762621 1.45756254,9.38327816 0.836,8.88457143 C0.356016807,8.53979922 0.0506379246,8.00251607 0,7.41371429 C0,6.46914286 1.03771429,5.54342857 2.776,4.93771429 C4.46441911,4.40100001 6.22852703,4.14087996 8,4.16742857 C9.74783108,4.14300855 11.4883101,4.398428 13.1554286,4.924 C13.8870208,5.15723295 14.571504,5.51824079 15.1771429,5.99028571 C15.6491076,6.31910868 15.9505852,6.84062318 16,7.41371429 C16,8.39542857 14.84,9.39028571 12.9714286,10.0085714 C11.3588155,10.4882122 9.68218863,10.7177366 8,10.6891429 Z M8,4.85085714 C6.30520813,4.82820314 4.61761472,5.07548794 3.00057143,5.58342857 C1.40057143,6.14171429 0.683428571,6.90514286 0.683428571,7.412 C0.683428571,7.94228571 1.45428571,8.776 3.14685714,9.35485714 C4.72004176,9.82677376 6.3580634,10.0464496 8,10.0057143 C9.60937416,10.0344942 11.2136703,9.81673391 12.7571429,9.36 C14.5142857,8.77771429 15.3142857,7.94285714 15.3142857,7.41371429 C15.2559972,7.04659666 15.0467032,6.72063686 14.7371429,6.51485714 C14.1952855,6.09608248 13.5838285,5.77613626 12.9308571,5.56971429 C11.3360155,5.06900361 9.67141536,4.82632579 8,4.85085714 Z"/>
    <path id="file-react-logo-c" d="M4.75428571,14.5388571 C4.48771446,14.5449736 4.22428767,14.4803 3.99085714,14.3514286 C3.17257143,13.8794286 2.88914286,12.5182857 3.23257143,10.7097143 C3.61122632,8.97891117 4.2673161,7.32074073 5.17542857,5.79942857 C6.02727417,4.27320216 7.11781844,2.89309361 8.40571429,1.71142857 C8.97323431,1.19411712 9.62792489,0.781453111 10.3394286,0.492571429 C10.8604307,0.248404494 11.4629978,0.248404494 11.984,0.492571429 C12.8348571,0.982857143 13.1165714,2.48457143 12.7194286,4.412 C12.32908,6.0488929 11.6900346,7.61625017 10.8245714,9.05942857 C10.0027045,10.5676329 8.94649858,11.9357242 7.69542857,13.1125714 C7.10730556,13.6501618 6.42476251,14.0742568 5.68228571,14.3634286 C5.38503988,14.4737513 5.07129139,14.5330621 4.75428571,14.5388571 Z M5.76742857,6.13885714 C4.90119845,7.59561536 4.27237841,9.18097484 3.90457143,10.8354286 C3.58857143,12.5011429 3.892,13.5028571 4.33314286,13.7577143 C4.79028571,14.0222857 5.9,13.7714286 7.24742857,12.5942857 C8.44173005,11.4668285 9.44984768,10.1572593 10.2342857,8.71428571 C11.0633923,7.3345809 11.6763974,5.83608102 12.052,4.27085714 C12.4257143,2.45657143 12.1028571,1.34571429 11.6445714,1.08171429 C11.2973048,0.94865521 10.9101861,0.967099303 10.5771429,1.13257143 C9.94381744,1.39391254 9.36156153,1.76493141 8.85714286,2.22857143 C7.62666894,3.36045024 6.58496491,4.68167819 5.77142857,6.14228571 L5.76742857,6.13885714 Z"/>
    <path id="file-react-logo-d" d="M11.244,14.5462857 C10.4697143,14.5462857 9.48628571,14.0777143 8.46228571,13.1971429 C7.15182845,12.0047285 6.04284433,10.6082228 5.17828571,9.06171429 C4.28156156,7.56134703 3.63066831,5.927169 3.25028571,4.22114286 C3.08531926,3.47056449 3.05475084,2.69668046 3.16,1.93542857 C3.20925801,1.3637558 3.50934538,0.84331139 3.97942857,0.514285714 C4.82914286,0.0222857143 6.27085714,0.528 7.74228571,1.83428571 C8.96548116,2.98982005 10.0042228,4.32611582 10.8222857,5.79657143 C11.7184557,7.26191186 12.3761745,8.86030359 12.7708571,10.532 C12.9429239,11.3101174 12.9694663,12.1133638 12.8491429,12.9011429 C12.7912113,13.4890562 12.4793814,14.0223395 11.9954286,14.3611429 C11.7658067,14.4884117 11.5064638,14.5523106 11.244,14.5462857 Z M5.76971429,8.71771429 C6.59910282,10.195676 7.65845033,11.5322053 8.908,12.6771429 C10.1931429,13.7828571 11.2125714,14.0205714 11.6508571,13.7628571 C12.108,13.4971429 12.4451429,12.4125714 12.0977143,10.6577143 C11.717073,9.06167924 11.086221,7.53594698 10.2285714,6.13714286 C9.44790352,4.72978443 8.45642322,3.45020637 7.28857143,2.34285714 C5.90342857,1.11314286 4.78,0.838285714 4.32228571,1.10342857 C4.0338644,1.3378128 3.856695,1.68220525 3.83371429,2.05314286 C3.74286012,2.73204942 3.77245629,3.42165958 3.92114286,4.09028571 C4.2870299,5.72179412 4.91128146,7.2843521 5.77028571,8.71885714 L5.76971429,8.71771429 Z"/>
  </defs>
  <g fill="none" fill-rule="evenodd">
    <polygon fill="#000" fill-opacity=".05" points="6 1 6 31 26 31 26 11 16 11 16 1"/>
    <path stroke="#151516" d="M16.5,10.5 L26.5,10.5 L26.5,31.5 L5.5,31.5 L5.5,0.5 L16.5,0.5 L16.5,10.5 Z" opacity=".65"/>
    <path fill="none" stroke="#FFF" d="M5.5,0.5 L17.2071068,0.5 L26.5,9.79289322 L26.5,31.5 L5.5,31.5 L5.5,0.5 Z"/>
    <path stroke="#000" d="M5.5,0.5 L17.2071068,0.5 L26.5,9.79289322 L26.5,31.5 L5.5,31.5 L5.5,0.5 Z" opacity=".65"/>
    <path fill="#000" fill-opacity=".2" fill-rule="nonzero" d="M16,11 L26,11 L26,12 L16,12 L15,12 L15,1 L16,1 L16,11 Z"/>
    <g fill-rule="nonzero">
      <g transform="translate(8 14)">
        <use fill="#4FC1F9" xlink:href="#file-react-logo-a"/>
        <use fill="#151516" fill-opacity=".1" xlink:href="#file-react-logo-a"/>
        <use fill="#4FC1F9" xlink:href="#file-react-logo-b"/>
        <use fill="#151516" fill-opacity=".1" xlink:href="#file-react-logo-b"/>
        <g>
          <use fill="#4FC1F9" xlink:href="#file-react-logo-c"/>
          <use fill="#151516" fill-opacity=".1" xlink:href="#file-react-logo-c"/>
        </g>
        <g>
          <use fill="#4FC1F9" xlink:href="#file-react-logo-d"/>
          <use fill="#151516" fill-opacity=".1" xlink:href="#file-react-logo-d"/>
        </g>
      </g>
    </g>
  </g>
</svg>
