<svg xmlns="http://www.w3.org/2000/svg" width="32" height="32" viewBox="0 0 32 32">
  <g fill="none" fill-rule="evenodd">
    <polygon fill="#000" fill-opacity=".05" points="6 1 6 31 26 31 26 11 16 11 16 1"/>
    <path stroke="#151516" d="M16.5,10.5 L26.5,10.5 L26.5,31.5 L5.5,31.5 L5.5,0.5 L16.5,0.5 L16.5,10.5 Z" opacity=".65"/>
    <path fill="none" stroke="#FFF" d="M5.5,0.5 L17.2071068,0.5 L26.5,9.79289322 L26.5,31.5 L5.5,31.5 L5.5,0.5 Z"/>
    <path stroke="#000" d="M5.5,0.5 L17.2071068,0.5 L26.5,9.79289322 L26.5,31.5 L5.5,31.5 L5.5,0.5 Z" opacity=".65"/>
    <path fill="#000" fill-opacity=".2" fill-rule="nonzero" d="M16,11 L26,11 L26,12 L16,12 L15,12 L15,1 L16,1 L16,11 Z"/>
    <g fill="#006FFF" fill-rule="nonzero">
      <path d="M13.9989871,1.39148459 L11.0626537,0.3 L4.71697294,6.04287368 L0.837650123,3.30264072 L0,3.69625235 L0,10.0815077 L0.832585733,10.4704167 L4.70684416,7.73018377 L11.0626537,13.4674143 L14,12.3759297 L14,1.39148459 L13.9989871,1.39148459 Z M1.25141079,8.38479236 L1.25141079,5.38732456 L3.04926928,6.87665316 L1.25141079,8.38479236 Z M6.99949356,6.87665316 L10.5860946,4.38424975 L10.5860946,9.3873969 L6.99442917,6.87665316 L6.99949356,6.87665316 Z" transform="translate(9 14)"/>
    </g>
  </g>
</svg>
