<svg xmlns="http://www.w3.org/2000/svg" width="32" height="32" viewBox="0 0 32 32">
  <g fill="none" fill-rule="evenodd">
    <polygon fill="#000" fill-opacity=".05" points="6 1 6 31 26 31 26 11 16 11 16 1"/>
    <path stroke="#151516" d="M16.5,10.5 L26.5,10.5 L26.5,31.5 L5.5,31.5 L5.5,0.5 L16.5,0.5 L16.5,10.5 Z" opacity=".65"/>
    <path fill="none" stroke="#FFF" d="M5.5,0.5 L17.2071068,0.5 L26.5,9.79289322 L26.5,31.5 L5.5,31.5 L5.5,0.5 Z"/>
    <path stroke="#000" d="M5.5,0.5 L17.2071068,0.5 L26.5,9.79289322 L26.5,31.5 L5.5,31.5 L5.5,0.5 Z" opacity=".65"/>
    <path fill="#000" fill-opacity=".2" fill-rule="nonzero" d="M16,11 L26,11 L26,12 L16,12 L15,12 L15,1 L16,1 L16,11 Z"/>
    <g fill-rule="nonzero">
      <path fill="#43D459" d="M16.000002,28.7871303 C15.7870236,28.7872105 15.5777792,28.7312046 15.3933167,28.6247461 L13.4627494,27.4818548 C13.1746303,27.3205983 13.3150249,27.263651 13.4103129,27.2303848 C13.7167426,27.1357164 14.0101418,27.003128 14.2836916,26.8357011 C14.3302448,26.8141652 14.3846217,26.8182169 14.4274692,26.8464139 L15.9109163,27.7276863 C15.9669999,27.7573581 16.0341318,27.7573581 16.0902154,27.7276863 L21.8751514,24.3886619 C21.9302237,24.3556681 21.9638561,24.2961152 21.9636733,24.2319161 L21.9636733,17.5527396 C21.9637123,17.4875435 21.9297264,17.4270529 21.8740237,17.3931746 L16.0890878,14.0569694 C16.0336061,14.0257231 15.9658341,14.0257231 15.9103524,14.0569694 L10.1287995,17.3943023 C10.0727081,17.4274753 10.0380594,17.4875757 10.0374584,17.5527396 L10.0374584,24.2290969 C10.0376191,24.2932026 10.0723131,24.352247 10.1282357,24.3835874 L11.7148643,25.2992537 C12.574711,25.7288951 13.1013319,25.2225723 13.1013319,24.7139941 L13.1013319,18.1222119 C13.1013319,18.0287928 13.177063,17.9530617 13.2704821,17.9530617 L14.0034661,17.9530617 C14.0968852,17.9530617 14.1726163,18.0287928 14.1726163,18.1222119 L14.1726163,24.7145579 C14.1726163,25.8619599 13.5478883,26.5188264 12.4596889,26.5188264 C11.9902286,26.5270052 11.5281291,26.4014581 11.1273494,26.1568451 L9.60668931,25.284594 C9.23101152,25.065821 8.99995428,24.663833 9.00000403,24.2290969 L9.00000403,17.5527396 C8.99888724,17.1172764 9.23014832,16.714289 9.60668931,16.495551 L15.3921891,13.1553989 C15.7709106,12.9482004 16.2290935,12.9482004 16.607815,13.1553989 L22.3927509,16.495551 C22.7683823,16.7138947 22.999647,17.1154405 23,17.5499204 L23,24.2290969 C22.9993574,24.6637947 22.7682232,25.0655434 22.3927509,25.284594 L16.607815,28.6247461 C16.4230111,28.7313713 16.2133593,28.7873821 16.000002,28.7871303 Z M14.9027812,21.9946231 C14.9027812,21.9012041 14.9785123,21.825473 15.0719314,21.825473 L15.820139,21.825473 C15.9026881,21.8257403 15.9729873,21.8855542 15.98647,21.9669953 C16.0992368,22.7287349 16.4375371,23.1127058 17.9672185,23.1127058 C19.1856636,23.1127058 19.7049546,22.836991 19.7049546,22.1902735 C19.7049546,21.8175793 19.557794,21.5407368 17.6638759,21.3552355 C16.0806303,21.1984897 15.1018146,20.847785 15.1018146,19.5825417 C15.1018146,18.4154055 16.0857048,17.7190706 17.734919,17.7190706 C19.588241,17.7190706 20.5055988,18.3624051 20.6217486,19.7426705 C20.6253344,19.7892469 20.6094987,19.8352326 20.5779957,19.8697257 C20.5464926,19.9042189 20.5021274,19.9241481 20.4554176,19.9247889 L19.7021355,19.9247889 C19.6243723,19.9237004 19.5573717,19.8697278 19.5397513,19.7939794 C19.3598883,18.9927714 18.919534,18.7367908 17.7354828,18.7367908 C16.4048348,18.7367908 16.2503443,19.2002623 16.2503443,19.547584 C16.2503443,19.9682041 16.4330265,20.0911199 18.2294013,20.3284939 C20.0071696,20.5636127 20.8517928,20.8962747 20.8517928,22.1457306 C20.8517928,23.4064633 19.8008064,24.1281707 17.9677824,24.1281707 C15.4333489,24.1315537 14.9027812,22.969492 14.9027812,21.9946231 Z"/>
      <path fill="#000" d="M16.000002,28.7871303 C15.7870236,28.7872105 15.5777792,28.7312046 15.3933167,28.6247461 L13.4627494,27.4818548 C13.1746303,27.3205983 13.3150249,27.263651 13.4103129,27.2303848 C13.7167426,27.1357164 14.0101418,27.003128 14.2836916,26.8357011 C14.3302448,26.8141652 14.3846217,26.8182169 14.4274692,26.8464139 L15.9109163,27.7276863 C15.9669999,27.7573581 16.0341318,27.7573581 16.0902154,27.7276863 L21.8751514,24.3886619 C21.9302237,24.3556681 21.9638561,24.2961152 21.9636733,24.2319161 L21.9636733,17.5527396 C21.9637123,17.4875435 21.9297264,17.4270529 21.8740237,17.3931746 L16.0890878,14.0569694 C16.0336061,14.0257231 15.9658341,14.0257231 15.9103524,14.0569694 L10.1287995,17.3943023 C10.0727081,17.4274753 10.0380594,17.4875757 10.0374584,17.5527396 L10.0374584,24.2290969 C10.0376191,24.2932026 10.0723131,24.352247 10.1282357,24.3835874 L11.7148643,25.2992537 C12.574711,25.7288951 13.1013319,25.2225723 13.1013319,24.7139941 L13.1013319,18.1222119 C13.1013319,18.0287928 13.177063,17.9530617 13.2704821,17.9530617 L14.0034661,17.9530617 C14.0968852,17.9530617 14.1726163,18.0287928 14.1726163,18.1222119 L14.1726163,24.7145579 C14.1726163,25.8619599 13.5478883,26.5188264 12.4596889,26.5188264 C11.9902286,26.5270052 11.5281291,26.4014581 11.1273494,26.1568451 L9.60668931,25.284594 C9.23101152,25.065821 8.99995428,24.663833 9.00000403,24.2290969 L9.00000403,17.5527396 C8.99888724,17.1172764 9.23014832,16.714289 9.60668931,16.495551 L15.3921891,13.1553989 C15.7709106,12.9482004 16.2290935,12.9482004 16.607815,13.1553989 L22.3927509,16.495551 C22.7683823,16.7138947 22.999647,17.1154405 23,17.5499204 L23,24.2290969 C22.9993574,24.6637947 22.7682232,25.0655434 22.3927509,25.284594 L16.607815,28.6247461 C16.4230111,28.7313713 16.2133593,28.7873821 16.000002,28.7871303 Z M14.9027812,21.9946231 C14.9027812,21.9012041 14.9785123,21.825473 15.0719314,21.825473 L15.820139,21.825473 C15.9026881,21.8257403 15.9729873,21.8855542 15.98647,21.9669953 C16.0992368,22.7287349 16.4375371,23.1127058 17.9672185,23.1127058 C19.1856636,23.1127058 19.7049546,22.836991 19.7049546,22.1902735 C19.7049546,21.8175793 19.557794,21.5407368 17.6638759,21.3552355 C16.0806303,21.1984897 15.1018146,20.847785 15.1018146,19.5825417 C15.1018146,18.4154055 16.0857048,17.7190706 17.734919,17.7190706 C19.588241,17.7190706 20.5055988,18.3624051 20.6217486,19.7426705 C20.6253344,19.7892469 20.6094987,19.8352326 20.5779957,19.8697257 C20.5464926,19.9042189 20.5021274,19.9241481 20.4554176,19.9247889 L19.7021355,19.9247889 C19.6243723,19.9237004 19.5573717,19.8697278 19.5397513,19.7939794 C19.3598883,18.9927714 18.919534,18.7367908 17.7354828,18.7367908 C16.4048348,18.7367908 16.2503443,19.2002623 16.2503443,19.547584 C16.2503443,19.9682041 16.4330265,20.0911199 18.2294013,20.3284939 C20.0071696,20.5636127 20.8517928,20.8962747 20.8517928,22.1457306 C20.8517928,23.4064633 19.8008064,24.1281707 17.9677824,24.1281707 C15.4333489,24.1315537 14.9027812,22.969492 14.9027812,21.9946231 Z" opacity=".104"/>
    </g>
  </g>
</svg>
