<?xml version="1.0" encoding="UTF-8"?>
<svg width="32px" height="32px" viewBox="0 0 32 32" version="1.1" xmlns="http://www.w3.org/2000/svg" xmlns:xlink="http://www.w3.org/1999/xlink">
    <!-- Generator: Sketch 54 (76480) - https://sketchapp.com -->
    <title>File</title>
    <desc>Created with Sketch.</desc>
    <defs>
        <path d="M10,0 C11.3333333,0 12.3333333,0.333333333 13,1 C17.6666667,5.66666667 20.3333333,8.33333333 21,9 C21.6666667,9.66666667 22,10.6666667 22,12 L22,30 L0,30 L0,0 C5.33333333,0 8.66666667,0 10,0 Z" id="path-1"></path>
        <filter x="-29.5%" y="-21.7%" width="159.1%" height="150.0%" filterUnits="objectBoundingBox" id="filter-2">
            <feOffset dx="0" dy="2" in="SourceAlpha" result="shadowOffsetOuter1"></feOffset>
            <feGaussianBlur stdDeviation="1.5" in="shadowOffsetOuter1" result="shadowBlurOuter1"></feGaussianBlur>
            <feColorMatrix values="0 0 0 0 0   0 0 0 0 0   0 0 0 0 0  0 0 0 0.1 0" type="matrix" in="shadowBlurOuter1" result="shadowMatrixOuter1"></feColorMatrix>
            <feMorphology radius="0.5" operator="dilate" in="SourceAlpha" result="shadowSpreadOuter2"></feMorphology>
            <feOffset dx="0" dy="0" in="shadowSpreadOuter2" result="shadowOffsetOuter2"></feOffset>
            <feGaussianBlur stdDeviation="1.5" in="shadowOffsetOuter2" result="shadowBlurOuter2"></feGaussianBlur>
            <feColorMatrix values="0 0 0 0 0   0 0 0 0 0   0 0 0 0 0  0 0 0 0.3 0" type="matrix" in="shadowBlurOuter2" result="shadowMatrixOuter2"></feColorMatrix>
            <feMerge>
                <feMergeNode in="shadowMatrixOuter1"></feMergeNode>
                <feMergeNode in="shadowMatrixOuter2"></feMergeNode>
            </feMerge>
        </filter>
        <filter x="-34.1%" y="-25.0%" width="168.2%" height="156.7%" filterUnits="objectBoundingBox" id="filter-3">
            <feGaussianBlur stdDeviation="3" in="SourceAlpha" result="shadowBlurInner1"></feGaussianBlur>
            <feOffset dx="0" dy="1" in="shadowBlurInner1" result="shadowOffsetInner1"></feOffset>
            <feComposite in="shadowOffsetInner1" in2="SourceAlpha" operator="arithmetic" k2="-1" k3="1" result="shadowInnerInner1"></feComposite>
            <feColorMatrix values="0 0 0 0 0.207852129   0 0 0 0 0.207852129   0 0 0 0 0.207852129  0 0 0 0.4 0" type="matrix" in="shadowInnerInner1"></feColorMatrix>
        </filter>
        <linearGradient x1="50%" y1="29.2561849%" x2="50%" y2="59.7916667%" id="linearGradient-4">
            <stop stop-color="#FFFFFF" stop-opacity="0" offset="0%"></stop>
            <stop stop-color="#FFFFFF" offset="100%"></stop>
        </linearGradient>
        <linearGradient x1="50%" y1="29.2561849%" x2="24.8585069%" y2="50%" id="linearGradient-5">
            <stop stop-color="#FFFFFF" stop-opacity="0" offset="0%"></stop>
            <stop stop-color="#FFFFFF" offset="100%"></stop>
        </linearGradient>
        <polygon id="path-6" points="14 2 14 8 20 8"></polygon>
        <filter x="-37.5%" y="-12.5%" width="150.0%" height="150.0%" filterUnits="objectBoundingBox" id="filter-7">
            <feOffset dx="-0.5" dy="0.5" in="SourceAlpha" result="shadowOffsetOuter1"></feOffset>
            <feColorMatrix values="0 0 0 0 0   0 0 0 0 0   0 0 0 0 0  0 0 0 0.0961811626 0" type="matrix" in="shadowOffsetOuter1" result="shadowMatrixOuter1"></feColorMatrix>
            <feOffset dx="-1" dy="1" in="SourceAlpha" result="shadowOffsetOuter2"></feOffset>
            <feGaussianBlur stdDeviation="0.25" in="shadowOffsetOuter2" result="shadowBlurOuter2"></feGaussianBlur>
            <feColorMatrix values="0 0 0 0 0   0 0 0 0 0   0 0 0 0 0  0 0 0 0.1 0" type="matrix" in="shadowBlurOuter2" result="shadowMatrixOuter2"></feColorMatrix>
            <feMerge>
                <feMergeNode in="shadowMatrixOuter1"></feMergeNode>
                <feMergeNode in="shadowMatrixOuter2"></feMergeNode>
            </feMerge>
        </filter>
        <filter x="-33.3%" y="-8.3%" width="141.7%" height="141.7%" filterUnits="objectBoundingBox" id="filter-8">
            <feOffset dx="0" dy="1" in="SourceAlpha" result="shadowOffsetInner1"></feOffset>
            <feComposite in="shadowOffsetInner1" in2="SourceAlpha" operator="arithmetic" k2="-1" k3="1" result="shadowInnerInner1"></feComposite>
            <feColorMatrix values="0 0 0 0 0   0 0 0 0 0   0 0 0 0 0  0 0 0 0.167422421 0" type="matrix" in="shadowInnerInner1"></feColorMatrix>
        </filter>
    </defs>
    <g id="Page-1" stroke="none" stroke-width="1" fill="none" fill-rule="evenodd">
        <g id="Artboard" transform="translate(-368.000000, -70.000000)">
            <g id="Bitmap" transform="translate(32.000000, 32.000000)"></g>
            <g id="Vector" transform="translate(112.000000, 32.000000)">
                <g id="File---Color" transform="translate(256.000000, 0.000000)">
                    <g id="File---32" transform="translate(0.000000, 38.000000)">
                        <g id="Vector" transform="translate(5.000000, 0.000000)">
                            <g id="Page">
                                <use fill="black" fill-opacity="1" filter="url(#filter-2)" xlink:href="#path-1"></use>
                                <use fill="#FFFFFF" fill-rule="evenodd" xlink:href="#path-1"></use>
                                <use fill="black" fill-opacity="1" filter="url(#filter-3)" xlink:href="#path-1"></use>
                            </g>
                            <g id="White">
                                <path d="M10,0 C11.3333333,0 12.3333333,0.333333333 13,1 C17.6666667,5.66666667 20.3333333,8.33333333 21,9 C21.6666667,9.66666667 22,10.6666667 22,12 L22,30 L0,30 L0,0 C5.33333333,0 8.66666667,0 10,0 Z" id="Grad-Bottom" fill="url(#linearGradient-4)"></path>
                                <path d="M10,0 C11.3333333,0 12.3333333,0.333333333 13,1 C17.6666667,5.66666667 20.3333333,8.33333333 21,9 C21.6666667,9.66666667 22,10.6666667 22,12 L22,30 L0,30 L0,0 C5.33333333,0 8.66666667,0 10,0 Z" id="Grad-Left" fill="url(#linearGradient-5)"></path>
                            </g>
                            <path d="M10,0 C11.3333333,0 12.3333333,0.333333333 13,1 C17.6666667,5.66666667 20.3333333,8.33333333 21,9 C21.6666667,9.66666667 22,10.6666667 22,12 L22,30 L0,30 L0,0 C5.33333333,0 8.66666667,0 10,0 Z" id="Path"></path>
                            <path d="M0.25,0.25 L0.25,29.75 L21.75,29.75 L21.75,12 C21.75,10.7279081 21.4378227,9.79137604 20.8232233,9.1767767 C20.0732233,8.4267767 20.0732233,8.4267767 18.3232233,6.6767767 C16.0732233,4.4267767 16.0732233,4.4267767 12.8232233,1.1767767 C12.208624,0.56217735 11.2720919,0.25 10,0.25 C7.03614733,0.25 7.00043554,0.25 0.25,0.25 Z" id="Path" stroke-opacity="0.5" stroke="#515151" stroke-width="0.5"></path>
                            <g id="Corner">
                                <use fill="black" fill-opacity="1" filter="url(#filter-7)" xlink:href="#path-6"></use>
                                <use fill="#F9F9F9" fill-rule="evenodd" xlink:href="#path-6"></use>
                                <use fill="black" fill-opacity="1" filter="url(#filter-8)" xlink:href="#path-6"></use>
                            </g>
                        </g>
                    </g>
                </g>
            </g>
        </g>
    </g>
</svg>