<?xml version="1.0" encoding="UTF-8"?>
<svg width="32px" height="32px" viewBox="0 0 32 32" version="1.1" xmlns="http://www.w3.org/2000/svg" xmlns:xlink="http://www.w3.org/1999/xlink">
    <!-- Generator: Sketch 54 (76480) - https://sketchapp.com -->
    <title>Slice</title>
    <desc>Created with Sketch.</desc>
    <g id="Page-1" stroke="none" stroke-width="1" fill="none" fill-rule="evenodd">
        <g id="file-generic" transform="translate(5.000000, 0.000000)">
            <polygon id="Path" fill="#FFFFFF" fill-rule="nonzero" opacity="0.6" points="0.5 0.5 12.2071068 0.5 21.5 9.79289322 21.5 31.5 0.5 31.5"></polygon>
            <polygon id="Path" fill-opacity="0.05" fill="#000000" fill-rule="nonzero" points="1 1 1 31 21 31 21 11 11 11 11 1"></polygon>
            <polygon id="Path" stroke="#151516" opacity="0.65" points="11.5 10.5 21.5 10.5 21.5 31.5 0.5 31.5 0.5 0.5 11.5 0.5"></polygon>
            <polygon id="Path" stroke="#FFFFFF" points="0.5 0.5 12.2071068 0.5 21.5 9.79289322 21.5 31.5 0.5 31.5"></polygon>
            <polygon id="Path" stroke="#000000" opacity="0.65" points="0.5 0.5 12.2071068 0.5 21.5 9.79289322 21.5 31.5 0.5 31.5"></polygon>
            <polygon id="Path" fill-opacity="0.2" fill="#000000" fill-rule="nonzero" points="11 11 21 11 21 12 11 12 10 12 10 1 11 1"></polygon>
        </g>
    </g>
</svg>