<?xml version="1.0" encoding="UTF-8"?>
<svg width="16px" height="16px" viewBox="0 0 16 16" version="1.1" xmlns="http://www.w3.org/2000/svg" xmlns:xlink="http://www.w3.org/1999/xlink">
    <!-- Generator: Sketch 54 (76480) - https://sketchapp.com -->
    <title>folder-generic</title>
    <desc>Created with Sketch.</desc>
    <g id="Icons" stroke="none" stroke-width="1" fill="none" fill-rule="evenodd">
        <g id="Folder---16">
            <g id="folder">
                <g id="body" transform="translate(1.000000, 3.000000)">
                    <rect fill="#77D0FA" x="0" y="0" width="14" height="10"></rect>
                    <g id="gradient" fill-rule="nonzero">
                        <rect id="bottom" fill="#92DBFC" x="0" y="9" width="14" height="1"></rect>
                        <rect id="upper" fill="#6ECEF9" x="0" y="3" width="14" height="3"></rect>
                        <rect id="top" fill="#69CBF8" x="0" y="0" width="14" height="3"></rect>
                    </g>
                </g>
                <g id="shadow" transform="translate(0.000000, 14.000000)" fill="#444444">
                    <rect id="left" fill-opacity="0.1" x="0" y="0" width="1" height="1"></rect>
                    <rect id="mid" fill-opacity="0.15" x="1" y="0" width="14" height="1"></rect>
                    <rect id="right" fill-opacity="0.1" x="15" y="0" width="1" height="1"></rect>
                </g>
                <g id="lower" transform="translate(0.000000, 12.000000)">
                    <rect id="right-lower" fill="#83D6FA" x="15" y="1" width="1" height="1"></rect>
                    <rect id="right-upper" fill="#6CB9DB" x="15" y="0" width="1" height="1"></rect>
                    <rect id="mid" fill="#53A8CF" x="1" y="1" width="14" height="1"></rect>
                    <rect id="left-upper" fill="#6EBBDB" x="0" y="0" width="1" height="1"></rect>
                    <rect id="left-lower" fill="#8ADDFF" x="0" y="1" width="1" height="1"></rect>
                </g>
                <g id="right" transform="translate(15.000000, 3.000000)">
                    <rect id="right-3" fill="#55ABD5" x="0" y="6" width="1" height="3"></rect>
                    <rect id="right-2" fill="#5EAFD6" x="0" y="4" width="1" height="2"></rect>
                    <rect id="right-1" fill="#60B3D7" x="0" y="0" width="1" height="4"></rect>
                </g>
                <rect id="left" fill="#54AAD3" x="0" y="3" width="1" height="9"></rect>
                <g id="upper">
                    <rect id="corner-right" fill="#B9FFFF" x="15" y="2" width="1" height="1"></rect>
                    <rect id="corner-left" fill="#C5FFFF" x="0" y="0" width="1" height="1"></rect>
                    <polygon id="bottom" fill="#73BDDC" points="0 1 1 1 1 2 15 2 15 3 0 3"></polygon>
                    <rect id="right" fill="#7AC8E9" x="6" y="1" width="1" height="1"></rect>
                    <rect id="top" fill="#71BCDC" x="1" y="0" width="5" height="1"></rect>
                </g>
                <rect id="top" fill="#91DCFF" x="1" y="1" width="5" height="1"></rect>
            </g>
        </g>
    </g>
</svg>