<svg width="100" height="100" viewBox="0 0 100 100" fill="none" xmlns="http://www.w3.org/2000/svg">
<path d="M49.9755 56.6894C52.4495 56.722 54.6793 56.1035 56.665 54.834C58.6507 53.5645 60.2294 51.8392 61.4013 49.6582C62.5732 47.4772 63.1591 45.0032 63.1591 42.2363C63.1591 39.6647 62.5732 37.3047 61.4013 35.1562C60.2294 33.0078 58.6507 31.2907 56.665 30.0049C54.6793 28.7191 52.4495 28.0762 49.9755 28.0762C47.5341 28.0762 45.3124 28.7191 43.3105 30.0049C41.3086 31.2907 39.7217 33.0078 38.5498 35.1562C37.3779 37.3047 36.8082 39.6647 36.8408 42.2363C36.8408 45.0032 37.4267 47.4691 38.5986 49.6338C39.7705 51.7985 41.3492 53.5075 43.3349 54.7607C45.3206 56.014 47.5341 56.6569 49.9755 56.6894Z" fill="black"/>
<path fill-rule="evenodd" clip-rule="evenodd" d="M65.2099 86.3281C60.4573 88.3789 55.3792 89.4043 49.9755 89.4043C44.6045 89.4043 39.5427 88.3789 34.7901 86.3281C30.0375 84.2773 25.8463 81.429 22.2167 77.7832C18.5872 74.1373 15.7389 69.9381 13.6719 65.1855C11.6048 60.4329 10.5713 55.3711 10.5713 50C10.5713 44.6289 11.6048 39.5671 13.6719 34.8144C15.7389 30.0618 18.5791 25.8626 22.1924 22.2168C25.8057 18.5709 29.9886 15.7226 34.7412 13.6719C39.4939 11.6211 44.5557 10.5957 49.9267 10.5957C55.3304 10.5957 60.4085 11.6211 65.1611 13.6719C69.9137 15.7226 74.113 18.5709 77.7588 22.2168C81.4046 25.8626 84.2611 30.0618 86.3281 34.8144C88.3952 39.5671 89.4287 44.6289 89.4287 50C89.4287 55.3711 88.3952 60.4329 86.3281 65.1855C84.2611 69.9381 81.4128 74.1373 77.7832 77.7832C74.1536 81.429 69.9625 84.2773 65.2099 86.3281ZM26.0966 71.2746C26.6983 70.6315 27.407 69.9934 28.2226 69.3603C30.5501 67.5537 33.5774 66.0645 37.3046 64.8926C41.0319 63.7207 45.2555 63.1348 49.9755 63.1348C54.7281 63.1348 58.9599 63.7207 62.6708 64.8926C66.3818 66.0645 69.4092 67.5537 71.7529 69.3603C72.588 70.004 73.3115 70.653 73.9235 71.307C76.2385 68.6962 78.0947 65.7443 79.4921 62.4512C81.1361 58.5775 81.9581 54.4271 81.9581 50C81.9581 45.5729 81.128 41.4225 79.4678 37.5488C77.8076 33.6751 75.5127 30.2734 72.5831 27.3437C69.6533 24.414 66.2598 22.1273 62.4023 20.4834C58.5449 18.8395 54.3864 18.0176 49.9267 18.0176C45.4997 18.0176 41.3574 18.8395 37.4999 20.4834C33.6425 22.1273 30.2572 24.414 27.3438 27.3437C24.4303 30.2734 22.1598 33.6751 20.5322 37.5488C18.9046 41.4225 18.0908 45.5729 18.0908 50C18.0908 54.4271 18.9128 58.5775 20.5567 62.4512C21.9483 65.7306 23.795 68.6718 26.0966 71.2746Z" fill="black"/>
</svg>
