<svg width="100" height="100" viewBox="0 0 100 100" fill="none" xmlns="http://www.w3.org/2000/svg">
<path d="M50.0244 95.5772C56.8278 95.5772 62.7929 94.1205 67.9199 91.2071C73.0469 88.2937 77.0264 84.2246 79.8584 79C82.6904 73.7755 84.1064 67.6638 84.1064 60.6651C84.1064 56.7914 83.5693 52.9584 82.4951 49.1661C81.4209 45.3737 79.8746 41.8174 77.8564 38.4971C75.8382 35.1768 73.4457 32.2797 70.6787 29.8057C70.6461 26.1924 69.7754 23.1081 68.0664 20.5528C66.3574 17.9974 63.9648 16.0443 60.8886 14.6934C57.8125 13.3425 54.1911 12.6671 50.0244 12.6671C45.8252 12.6671 42.1875 13.3506 39.1113 14.7178C36.0351 16.085 33.6425 18.0462 31.9335 20.6016C30.2246 23.1569 29.3538 26.2249 29.3212 29.8057C25.2197 33.4841 21.9564 38.0739 19.5312 43.5753C17.1061 49.0765 15.8935 54.7731 15.8935 60.6651C15.8935 67.6638 17.3177 73.7755 20.166 79C23.0143 84.2246 26.9938 88.2937 32.1044 91.2071C37.2152 94.1205 43.1885 95.5772 50.0244 95.5772ZM50.0244 39.4737C53.3122 39.4737 56.5104 39.1888 59.6191 38.6192C62.7279 38.0495 65.3727 37.2764 67.5537 36.2999C69.0185 37.8949 70.5078 39.8805 72.0214 42.2569C73.5351 44.6332 74.7965 47.3676 75.8056 50.46C76.8148 53.5524 77.3193 56.9541 77.3193 60.6651C77.3193 66.264 76.18 71.1712 73.9013 75.3868C71.6227 79.6023 68.4326 82.8819 64.331 85.2256C60.2295 87.5694 55.4606 88.7412 50.0244 88.7412C44.5556 88.7412 39.7705 87.5694 35.6689 85.2256C31.5674 82.8819 28.3854 79.6023 26.123 75.3868C23.8606 71.1712 22.7294 66.264 22.7294 60.6651C22.7294 56.9541 23.2259 53.5524 24.2187 50.46C25.2116 47.3676 26.4649 44.6332 27.9785 42.2569C29.4922 39.8805 30.9977 37.8949 32.4951 36.2999C34.6761 37.2764 37.3128 38.0495 40.4052 38.6192C43.4977 39.1888 46.7041 39.4737 50.0244 39.4737ZM46.997 90.6944H52.6611V46.6514C52.6611 45.8702 52.3844 45.2029 51.831 44.6495C51.2776 44.0961 50.6103 43.8194 49.8291 43.8194C49.0479 43.8194 48.3805 44.0961 47.8271 44.6495C47.2737 45.2029 46.997 45.8702 46.997 46.6514V90.6944ZM37.8662 52.6573C39.2008 52.6573 40.3401 52.1771 41.2841 51.2169C42.2281 50.2565 42.7001 49.1253 42.7001 47.8233C42.7001 46.4887 42.2281 45.3493 41.2841 44.4053C40.3401 43.4613 39.2008 42.9893 37.8662 42.9893C36.5641 42.9893 35.441 43.4613 34.497 44.4053C33.553 45.3493 33.081 46.4887 33.081 47.8233C33.081 49.1253 33.553 50.2565 34.497 51.2169C35.441 52.1771 36.5641 52.6573 37.8662 52.6573ZM33.3251 67.7452C34.8551 67.7452 36.1735 67.1918 37.2802 66.085C38.387 64.9782 38.9404 63.6436 38.9404 62.0811C38.9404 60.5186 38.387 59.1921 37.2802 58.1016C36.1735 57.0111 34.8551 56.4659 33.3251 56.4659C31.7627 56.4659 30.428 57.0111 29.3212 58.1016C28.2145 59.1921 27.6611 60.5186 27.6611 62.0811C27.6611 63.6436 28.2145 64.9782 29.3212 66.085C30.428 67.1918 31.7627 67.7452 33.3251 67.7452ZM37.8662 80.8311C39.1358 80.8311 40.21 80.3916 41.0888 79.5127C41.9678 78.6338 42.4072 77.5759 42.4072 76.3389C42.4072 75.0693 41.9678 73.987 41.0888 73.0919C40.21 72.1967 39.1358 71.7491 37.8662 71.7491C36.6292 71.7491 35.5713 72.1967 34.6923 73.0919C33.8135 73.987 33.374 75.0693 33.374 76.3389C33.374 77.5759 33.8135 78.6338 34.6923 79.5127C35.5713 80.3916 36.6292 80.8311 37.8662 80.8311ZM62.1337 52.6573C63.4684 52.6573 64.5996 52.1771 65.5273 51.2169C66.4551 50.2565 66.9189 49.1253 66.9189 47.8233C66.9189 46.4887 66.4551 45.3493 65.5273 44.4053C64.5996 43.4613 63.4684 42.9893 62.1337 42.9893C60.7991 42.9893 59.6598 43.4613 58.7158 44.4053C57.7718 45.3493 57.2998 46.4887 57.2998 47.8233C57.2998 49.1253 57.7718 50.2565 58.7158 51.2169C59.6598 52.1771 60.7991 52.6573 62.1337 52.6573ZM66.6748 67.7452C68.2373 67.7452 69.5719 67.1918 70.6787 66.085C71.7855 64.9782 72.3388 63.6436 72.3388 62.0811C72.3388 60.5186 71.7855 59.1921 70.6787 58.1016C69.5719 57.0111 68.2373 56.4659 66.6748 56.4659C65.1448 56.4659 63.8265 57.0111 62.7197 58.1016C61.6129 59.1921 61.0595 60.5186 61.0595 62.0811C61.0595 63.6436 61.6129 64.9782 62.7197 66.085C63.8265 67.1918 65.1448 67.7452 66.6748 67.7452ZM62.1337 80.8311C63.3707 80.8311 64.4368 80.3916 65.332 79.5127C66.2272 78.6338 66.6748 77.5759 66.6748 76.3389C66.6748 75.0693 66.2272 73.987 65.332 73.0919C64.4368 72.1967 63.3707 71.7491 62.1337 71.7491C60.8642 71.7491 59.79 72.1967 58.9111 73.0919C58.0322 73.987 57.5927 75.0693 57.5927 76.3389C57.5927 77.5759 58.0322 78.6338 58.9111 79.5127C59.79 80.3916 60.8642 80.8311 62.1337 80.8311ZM33.4228 10.7139L35.5224 11.3487C36.3688 11.6091 36.9628 11.959 37.3046 12.3985C37.6464 12.8379 37.736 13.3995 37.5732 14.0831L37.1337 15.7921L43.5302 15.7432L43.7255 13.9366C43.9534 11.9509 43.5953 10.2338 42.6513 8.78517C41.7073 7.33664 40.2262 6.27057 38.208 5.58697L35.5224 4.65917C34.4482 4.30111 33.5368 4.34994 32.788 4.80567C32.0394 5.26141 31.5348 5.89617 31.2744 6.70997C31.014 7.52377 31.0384 8.3213 31.3476 9.10257C31.6569 9.88384 32.3486 10.4209 33.4228 10.7139ZM66.5771 10.7139C67.6513 10.4209 68.3512 9.88384 68.6767 9.10257C69.0023 8.3213 69.0267 7.52377 68.75 6.70997C68.4733 5.89617 67.9606 5.26141 67.2119 4.80567C66.4632 4.34994 65.5517 4.30111 64.4775 4.65917L61.7919 5.58697C59.7737 6.27057 58.3008 7.33664 57.373 8.78517C56.4453 10.2338 56.0791 11.9509 56.2744 13.9366L56.5185 15.7432L62.8662 15.7921L62.4267 14.0831C62.264 13.3995 62.3535 12.8379 62.6953 12.3985C63.0371 11.959 63.6312 11.6091 64.4775 11.3487L66.5771 10.7139ZM26.0986 37.2276L19.0185 31.1729C18.2047 30.4893 17.334 30.1312 16.4062 30.0987C15.4785 30.0661 14.6891 30.4568 14.038 31.2706C13.3545 32.0192 13.1104 32.8656 13.3056 33.8096C13.501 34.7536 13.9893 35.5674 14.7705 36.251L21.8994 42.3057L26.0986 37.2276ZM19.0673 55.1475L9.54595 55.1964C8.47169 55.1964 7.60904 55.4975 6.958 56.0997C6.30696 56.7019 5.98145 57.5075 5.98145 58.5167C5.98145 59.4932 6.30696 60.2826 6.958 60.8848C7.60904 61.487 8.47169 61.7882 9.54595 61.7882L19.0673 61.7393V55.1475ZM21.8505 77.5596L14.7216 83.6143C13.9404 84.2653 13.4603 85.0629 13.2812 86.0069C13.1022 86.9509 13.3382 87.8135 13.9892 88.5948C14.6403 89.4086 15.4378 89.7911 16.3818 89.7422C17.3258 89.6934 18.1885 89.3272 18.9697 88.6436L26.0498 82.6377L21.8505 77.5596ZM73.9013 37.2276L78.1005 42.3057L85.2294 36.251C86.0107 35.5674 86.499 34.7536 86.6943 33.8096C86.8897 32.8656 86.6618 32.0192 86.0107 31.2706C85.3271 30.4568 84.5215 30.0661 83.5937 30.0987C82.666 30.1312 81.7952 30.4893 80.9814 31.1729L73.9013 37.2276ZM80.9326 55.1475V61.7393L90.4541 61.7882C91.5283 61.7882 92.3909 61.487 93.0419 60.8848C93.693 60.2826 94.0185 59.4932 94.0185 58.5167C94.0185 57.5075 93.693 56.7019 93.0419 56.0997C92.3909 55.4975 91.5283 55.1964 90.4541 55.1964L80.9326 55.1475ZM78.1494 77.5596L73.9501 82.5889L81.0302 88.6436C81.844 89.3272 82.7148 89.6934 83.6425 89.7422C84.5703 89.7911 85.3597 89.4086 86.0107 88.5948C86.6943 87.8135 86.9385 86.9509 86.7431 86.0069C86.5478 85.0629 86.0595 84.2653 85.2783 83.6143L78.1494 77.5596Z" fill="black"/>
</svg>
