<svg width="100" height="100" viewBox="0 0 100 100" fill="none" xmlns="http://www.w3.org/2000/svg">
<path d="M29.1748 23.1933H36.2061V14.1113C36.2061 12.3535 36.6781 10.9944 37.6221 10.0341C38.5661 9.07383 39.9658 8.5937 41.8213 8.5937H58.4229V27.4414C58.4229 29.7526 59.0007 31.486 60.1563 32.6416C61.3119 33.7972 63.029 34.375 65.3076 34.375H82.2998V66.455C82.2998 68.2129 81.8278 69.5719 80.8838 70.5322C79.9398 71.4925 78.5563 71.9726 76.7334 71.9726H69.6045V79.0039H77.0752C81.1767 79.0039 84.2529 77.9703 86.3037 75.9033C88.3545 73.8362 89.3799 70.7194 89.3799 66.5527V36.3769C89.3799 33.7076 89.0707 31.4534 88.4522 29.6142C87.8337 27.775 86.7432 26.0579 85.1807 24.4629L66.8701 5.7617C65.3727 4.23176 63.7126 3.1494 61.8897 2.5146C60.0668 1.87986 57.9997 1.5625 55.6885 1.5625H41.4307C37.3291 1.5625 34.2611 2.60417 32.2266 4.6875C30.1921 6.77083 29.1748 9.87953 29.1748 14.0136V23.1933ZM64.7217 26.3672V11.8164L80.5908 28.0761H66.4307C65.2914 28.0761 64.7217 27.5065 64.7217 26.3672Z" fill="black"/>
<path d="M10.6201 85.9863C10.6201 90.153 11.6374 93.2698 13.6719 95.3369C15.7064 97.404 18.7744 98.4375 22.876 98.4375H58.5205C62.6221 98.4375 65.6983 97.3958 67.749 95.3125C69.7998 93.2291 70.8252 90.1204 70.8252 85.9863V56.8359C70.8252 54.1341 70.5892 52.0264 70.1172 50.5127C69.6452 48.999 68.5628 47.3796 66.8701 45.6543L46.6065 24.9511C45.0114 23.291 43.4489 22.2168 41.919 21.7285C40.389 21.2402 38.4521 20.9961 36.1084 20.9961H22.876C18.7744 20.9961 15.7064 22.0378 13.6719 24.1211C11.6374 26.2044 10.6201 29.3131 10.6201 33.4472V85.9863ZM17.6514 85.8886V33.5449C17.6514 31.7871 18.1234 30.428 19.0674 29.4677C20.0114 28.5074 21.4111 28.0273 23.2666 28.0273H34.9365V49.707C34.9365 52.2786 35.5794 54.1992 36.8652 55.4687C38.1511 56.7382 40.0635 57.373 42.6025 57.373H63.7451V85.8886C63.7451 87.6464 63.2812 89.0055 62.3535 89.9658C61.4258 90.9261 60.0342 91.4062 58.1787 91.4062H23.2178C21.3949 91.4062 20.0114 90.9261 19.0674 89.9658C18.1234 89.0055 17.6514 87.6464 17.6514 85.8886ZM43.4326 50.83C42.1305 50.83 41.4795 50.179 41.4795 48.8769V29.3945L62.4268 50.83H43.4326Z" fill="black"/>
</svg>
