<svg width="100" height="100" viewBox="0 0 100 100" fill="none" xmlns="http://www.w3.org/2000/svg">
<path d="M2.83182 75.2442C2.83182 79.2806 3.86534 82.3161 5.9324 84.3506C7.99946 86.3851 11.1001 87.4024 15.2342 87.4024H61.5721C65.6736 87.4024 68.7579 86.3851 70.825 84.3506C72.8921 82.3161 73.9256 79.2806 73.9256 75.2442V62.3536C73.9256 62.0932 74.007 61.9223 74.1697 61.8409C74.3325 61.7595 74.5604 61.8327 74.8533 62.0606C76.0903 62.9069 77.4168 63.5742 78.8328 64.0626C80.2488 64.5508 81.6404 64.795 83.0076 64.795C85.449 64.795 87.7439 64.1765 89.8924 62.9395C92.0409 61.7025 93.7905 59.9691 95.1412 57.7393C96.4925 55.5095 97.1682 52.946 97.1682 50.0489C97.1682 47.1192 96.4925 44.5476 95.1412 42.334C93.7905 40.1204 92.0409 38.3952 89.8924 37.1583C87.7439 35.9213 85.449 35.3028 83.0076 35.3028C81.6404 35.3028 80.2488 35.5388 78.8328 36.0108C77.4168 36.4828 76.0903 37.1582 74.8533 38.0372C74.5604 38.2324 74.3325 38.2894 74.1697 38.2081C74.007 38.1267 73.9256 37.9558 73.9256 37.6954V24.7559C73.9256 20.7194 72.8921 17.6839 70.825 15.6495C68.7579 13.6149 65.6736 12.5977 61.5721 12.5977H15.2342C11.1001 12.5977 7.99946 13.6149 5.9324 15.6495C3.86534 17.6839 2.83182 20.7194 2.83182 24.7559V41.504C2.83182 43.2292 3.32824 44.5883 4.3211 45.5811C5.3139 46.5739 6.52646 47.0704 7.9588 47.0704C8.74006 47.0704 9.5376 46.8995 10.3514 46.5577C11.1652 46.2159 11.9627 45.6706 12.7439 44.9219C13.6228 44.1081 14.5669 43.4652 15.576 42.9932C16.5851 42.5212 17.5942 42.2852 18.6033 42.2852C20.6216 42.2852 22.4038 42.9932 23.95 44.4092C25.4962 45.8252 26.2693 47.7051 26.2693 50.0489C26.2693 52.3926 25.4962 54.2725 23.95 55.6885C22.4038 57.1045 20.6216 57.8126 18.6033 57.8126C17.5942 57.8126 16.5851 57.5766 15.576 57.1046C14.5669 56.6326 13.6228 55.9896 12.7439 55.1758C11.9627 54.4271 11.1652 53.8819 10.3514 53.5401C9.5376 53.1983 8.74006 53.0274 7.9588 53.0274C6.52646 53.0274 5.3139 53.5238 4.3211 54.5167C3.32824 55.5095 2.83182 56.8685 2.83182 58.5938V75.2442ZM9.8631 74.8536V63.1348C9.8631 62.1582 10.0503 61.7513 10.4246 61.9141C10.7989 62.0769 11.1489 62.2559 11.4744 62.4512C12.6463 63.1999 13.867 63.7777 15.1365 64.1846C16.406 64.5915 17.6756 64.795 18.9451 64.795C21.3865 64.795 23.6814 64.1765 25.8299 62.9395C27.9783 61.7025 29.7198 59.9772 31.0545 57.7637C32.3891 55.5501 33.0564 52.9785 33.0564 50.0489C33.0564 47.1192 32.3891 44.5476 31.0545 42.334C29.7198 40.1204 27.9783 38.3952 25.8299 37.1583C23.6814 35.9213 21.3865 35.3028 18.9451 35.3028C17.6756 35.3028 16.406 35.5062 15.1365 35.9132C13.867 36.32 12.6463 36.8978 11.4744 37.6466C11.1489 37.8418 10.7989 38.0209 10.4246 38.1837C10.0503 38.3464 9.8631 37.9395 9.8631 36.963V25.1466C9.8631 23.3236 10.3432 21.9483 11.3035 21.0206C12.2638 20.0928 13.6065 19.629 15.3318 19.629H61.4744C63.1997 19.629 64.5343 20.0928 65.4783 21.0206C66.4223 21.9483 66.8943 23.3236 66.8943 25.1466V41.4551C66.8943 43.1803 67.3907 44.5475 68.3836 45.5567C69.3764 46.5658 70.589 47.0704 72.0213 47.0704C72.8026 47.0704 73.6001 46.8913 74.4139 46.5333C75.2277 46.1752 76.0252 45.6381 76.8064 44.9219C77.6853 44.1081 78.6294 43.4652 79.6385 42.9932C80.6476 42.5212 81.6567 42.2852 82.6658 42.2852C84.6841 42.2852 86.4663 42.9932 88.0125 44.4092C89.5587 45.8252 90.3318 47.7051 90.3318 50.0489C90.3318 52.3926 89.5587 54.2725 88.0125 55.6885C86.4663 57.1045 84.6841 57.8126 82.6658 57.8126C81.6567 57.8126 80.6476 57.5766 79.6385 57.1046C78.6294 56.6326 77.6853 55.9896 76.8064 55.1758C76.0252 54.4271 75.2277 53.8819 74.4139 53.5401C73.6001 53.1983 72.8026 53.0274 72.0213 53.0274C70.589 53.0274 69.3764 53.5319 68.3836 54.5411C67.3907 55.5502 66.8943 56.9011 66.8943 58.5938V74.8536C66.8943 76.6765 66.4223 78.0518 65.4783 78.9795C64.5343 79.9072 63.1997 80.3711 61.4744 80.3711H15.3318C13.6065 80.3711 12.2638 79.9072 11.3035 78.9795C10.3432 78.0518 9.8631 76.6765 9.8631 74.8536Z" fill="black"/>
</svg>
