<svg width="100" height="100" viewBox="0 0 100 100" fill="none" xmlns="http://www.w3.org/2000/svg">
<path d="M27.2169 85H72.7145C76.8142 85 79.881 83.9918 81.9149 81.9753C83.9488 79.9588 84.9657 76.9341 84.9657 72.9012V27.0988C84.9657 23.0659 83.9488 20.0412 81.9149 18.0247C79.881 16.0082 76.8142 15 72.7145 15H27.2169C23.1492 15 20.0904 16.0082 18.0405 18.0247C15.9906 20.0412 14.9657 23.0659 14.9657 27.0988V72.9012C14.9657 76.9341 15.9906 79.9588 18.0405 81.9753C20.0904 83.9918 23.1492 85 27.2169 85ZM27.313 78.0384C25.5834 78.0384 24.2462 77.5823 23.3013 76.6701C22.3565 75.7579 21.8841 74.3896 21.8841 72.5651V27.4349C21.8841 25.6424 22.3565 24.2821 23.3013 23.3539C24.2462 22.4257 25.5834 21.9616 27.313 21.9616H72.6184C74.348 21.9616 75.6852 22.4257 76.63 23.3539C77.575 24.2821 78.0474 25.6424 78.0474 27.4349V72.5651C78.0474 74.3896 77.575 75.7579 76.63 76.6701C75.6852 77.5823 74.348 78.0384 72.6184 78.0384H27.313Z" fill="black"/>
<path d="M32.3096 49.952C32.3096 51.0082 32.6459 51.8644 33.3185 52.5206C33.9911 53.1767 34.8879 53.5048 36.0089 53.5048H46.3864V63.9232C46.3864 64.9794 46.7067 65.8516 47.3473 66.5398C47.9879 67.2279 48.8527 67.572 49.9417 67.572C50.9986 67.572 51.8714 67.2279 52.56 66.5398C53.2487 65.8516 53.593 64.9794 53.593 63.9232V53.5048H63.9705C65.0595 53.5048 65.9403 53.1767 66.613 52.5206C67.2855 51.8644 67.6218 51.0082 67.6218 49.952C67.6218 48.8637 67.2855 47.9835 66.613 47.3113C65.9403 46.6393 65.0595 46.3032 63.9705 46.3032H53.593V35.9328C53.593 34.8445 53.2487 33.9563 52.56 33.2682C51.8714 32.58 50.9986 32.2359 49.9417 32.2359C48.8527 32.2359 47.9879 32.58 47.3473 33.2682C46.7067 33.9563 46.3864 34.8445 46.3864 35.9328V46.3032H36.0089C34.8879 46.3032 33.9911 46.6393 33.3185 47.3113C32.6459 47.9835 32.3096 48.8637 32.3096 49.952Z" fill="black"/>
</svg>
