<svg width="101" height="100" viewBox="0 0 101 100" fill="none" xmlns="http://www.w3.org/2000/svg">
<path d="M28.1483 85H73.6459C77.7456 85 80.8124 83.9918 82.8463 81.9753C84.8802 79.9588 85.8971 76.9341 85.8971 72.9012V27.0988C85.8971 23.0659 84.8802 20.0412 82.8463 18.0247C80.8124 16.0082 77.7456 15 73.6459 15H28.1483C24.0806 15 21.0218 16.0082 18.9719 18.0247C16.922 20.0412 15.8971 23.0659 15.8971 27.0988V72.9012C15.8971 76.9341 16.922 79.9588 18.9719 81.9753C21.0218 83.9918 24.0806 85 28.1483 85ZM28.2444 78.0384C26.5148 78.0384 25.1776 77.5823 24.2327 76.6701C23.2879 75.7579 22.8154 74.3896 22.8154 72.5651V27.4349C22.8154 25.6424 23.2879 24.2821 24.2327 23.3539C25.1776 22.4257 26.5148 21.9616 28.2444 21.9616H73.5498C75.2794 21.9616 76.6166 22.4257 77.5614 23.3539C78.5064 24.2821 78.9788 25.6424 78.9788 27.4349V72.5651C78.9788 74.3896 78.5064 75.7579 77.5614 76.6701C76.6166 77.5823 75.2794 78.0384 73.5498 78.0384H28.2444Z" fill="black"/>
<path d="M36.7962 53.6008H65.046C66.2632 53.6008 67.2481 53.2967 68.0007 52.6886C68.7534 52.0805 69.1298 51.2003 69.1298 50.0481C69.1298 48.8638 68.7695 47.9595 68.0488 47.3354C67.3281 46.7113 66.3272 46.3992 65.046 46.3992H36.7962C35.5471 46.3992 34.5462 46.7113 33.7935 47.3354C33.0407 47.9595 32.6644 48.8638 32.6644 50.0481C32.6644 51.2003 33.0487 52.0805 33.8175 52.6886C34.5862 53.2967 35.5791 53.6008 36.7962 53.6008Z" fill="black"/>
</svg>
