<svg width="100" height="100" viewBox="0 0 100 100" fill="none" xmlns="http://www.w3.org/2000/svg">
<path d="M84.375 56.8974C81.3348 56.9061 78.3835 57.9233 75.9835 59.7896C73.5835 61.6558 71.8706 64.2656 71.1131 67.2099H56.875C54.1409 67.2069 51.5196 66.1194 49.5863 64.1861C47.6529 62.2528 46.5655 59.6315 46.5625 56.8974V43.1474C46.5494 39.4164 45.3107 35.793 43.037 32.8349H71.1131C71.9498 36.0753 73.9395 38.8993 76.7094 40.7776C79.4793 42.6559 82.8391 43.4595 86.1591 43.0378C89.479 42.6161 92.5313 40.998 94.7436 38.4869C96.9559 35.9758 98.1765 32.744 98.1765 29.3974C98.1765 26.0507 96.9559 22.8189 94.7436 20.3078C92.5313 17.7967 89.479 16.1787 86.1591 15.757C82.8391 15.3353 79.4793 16.1389 76.7094 18.0172C73.9395 19.8955 71.9498 22.7195 71.1131 25.9599H28.8869C28.0502 22.7195 26.0605 19.8955 23.2906 18.0172C20.5207 16.1389 17.1609 15.3353 13.8409 15.757C10.5209 16.1787 7.46872 17.7967 5.25638 20.3078C3.04405 22.8189 1.82349 26.0507 1.82349 29.3974C1.82349 32.744 3.04405 35.9758 5.25638 38.4869C7.46872 40.998 10.5209 42.6161 13.8409 43.0378C17.1609 43.4595 20.5207 42.6559 23.2906 40.7776C26.0605 38.8993 28.0502 36.0753 28.8869 32.8349H29.375C32.1091 32.8379 34.7304 33.9253 36.6637 35.8586C38.597 37.792 39.6845 40.4132 39.6875 43.1474V56.8974C39.6929 61.4541 41.5054 65.8227 44.7275 69.0448C47.9496 72.267 52.3182 74.0795 56.875 74.0849H71.1131C71.7602 76.5693 73.0909 78.8224 74.9542 80.5885C76.8175 82.3545 79.1387 83.5627 81.6542 84.0757C84.1697 84.5888 86.7786 84.3862 89.1847 83.4909C91.5909 82.5957 93.6977 81.0436 95.266 79.0111C96.8343 76.9785 97.8013 74.5469 98.057 71.9924C98.3127 69.4379 97.847 66.8629 96.7127 64.5598C95.5784 62.2567 93.8211 60.3178 91.6402 58.9634C89.4593 57.6089 86.9423 56.8931 84.375 56.8974V56.8974ZM84.375 22.5224C85.7347 22.5224 87.0639 22.9256 88.1945 23.681C89.3251 24.4365 90.2063 25.5102 90.7267 26.7664C91.247 28.0227 91.3832 29.405 91.1179 30.7386C90.8526 32.0722 90.1978 33.2972 89.2363 34.2587C88.2749 35.2202 87.0499 35.875 85.7162 36.1403C84.3826 36.4055 83.0003 36.2694 81.744 35.749C80.4878 35.2287 79.4141 34.3475 78.6586 33.2169C77.9032 32.0863 77.5 30.7571 77.5 29.3974C77.5021 27.5746 78.2271 25.8272 79.5159 24.5383C80.8048 23.2495 82.5523 22.5245 84.375 22.5224ZM15.625 36.2724C14.2652 36.2724 12.936 35.8692 11.8054 35.1137C10.6749 34.3583 9.79367 33.2846 9.27332 32.0283C8.75297 30.7721 8.61682 29.3897 8.88209 28.0561C9.14736 26.7225 9.80215 25.4975 10.7636 24.536C11.7251 23.5745 12.9501 22.9197 14.2837 22.6545C15.6174 22.3892 16.9997 22.5253 18.2559 23.0457C19.5122 23.566 20.5859 24.4472 21.3413 25.5778C22.0968 26.7084 22.5 28.0376 22.5 29.3974C22.4982 31.2202 21.7733 32.9678 20.4843 34.2567C19.1954 35.5456 17.4478 36.2705 15.625 36.2724V36.2724ZM84.375 77.5224C83.0152 77.5224 81.686 77.1192 80.5554 76.3637C79.4249 75.6083 78.5437 74.5346 78.0233 73.2783C77.503 72.0221 77.3668 70.6397 77.6321 69.3061C77.8974 67.9725 78.5521 66.7475 79.5136 65.786C80.4751 64.8245 81.7001 64.1697 83.0337 63.9045C84.3674 63.6392 85.7497 63.7753 87.0059 64.2957C88.2622 64.816 89.3359 65.6972 90.0913 66.8278C90.8468 67.9584 91.25 69.2876 91.25 70.6474C91.2475 72.47 90.5224 74.2172 89.2336 75.506C87.9449 76.7948 86.1976 77.5199 84.375 77.5224V77.5224Z" fill="black"/>
</svg>
