<?xml version="1.0" encoding="UTF-8"?>
<!--Generator: Apple Native CoreSVG 175-->
<!DOCTYPE svg
PUBLIC "-//W3C//DTD SVG 1.1//EN"
       "http://www.w3.org/Graphics/SVG/1.1/DTD/svg11.dtd">
<svg version="1.1" xmlns="http://www.w3.org/2000/svg" xmlns:xlink="http://www.w3.org/1999/xlink" width="3300" height="2200">
 <!--glyph: "uni100BD4.medium", point size: 100.0, font version: "17.3d3e1", template writer version: "65.1"-->
 <g id="Notes">
  <rect height="2200" id="artboard" style="fill:white;opacity:1" width="3300" x="0" y="0"/>
  <line style="fill:none;stroke:black;opacity:1;stroke-width:0.5;" x1="263" x2="3036" y1="292" y2="292"/>
  <text style="stroke:none;fill:black;font-family:sans-serif;font-size:13;font-weight:bold;" transform="matrix(1 0 0 1 263 322)">Weight/Scale Variations</text>
  <text style="stroke:none;fill:black;font-family:sans-serif;font-size:13;text-anchor:middle;" transform="matrix(1 0 0 1 559.711 322)">Ultralight</text>
  <text style="stroke:none;fill:black;font-family:sans-serif;font-size:13;text-anchor:middle;" transform="matrix(1 0 0 1 856.422 322)">Thin</text>
  <text style="stroke:none;fill:black;font-family:sans-serif;font-size:13;text-anchor:middle;" transform="matrix(1 0 0 1 1153.13 322)">Light</text>
  <text style="stroke:none;fill:black;font-family:sans-serif;font-size:13;text-anchor:middle;" transform="matrix(1 0 0 1 1449.84 322)">Regular</text>
  <text style="stroke:none;fill:black;font-family:sans-serif;font-size:13;text-anchor:middle;" transform="matrix(1 0 0 1 1746.56 322)">Medium</text>
  <text style="stroke:none;fill:black;font-family:sans-serif;font-size:13;text-anchor:middle;" transform="matrix(1 0 0 1 2043.27 322)">Semibold</text>
  <text style="stroke:none;fill:black;font-family:sans-serif;font-size:13;text-anchor:middle;" transform="matrix(1 0 0 1 2339.98 322)">Bold</text>
  <text style="stroke:none;fill:black;font-family:sans-serif;font-size:13;text-anchor:middle;" transform="matrix(1 0 0 1 2636.69 322)">Heavy</text>
  <text style="stroke:none;fill:black;font-family:sans-serif;font-size:13;text-anchor:middle;" transform="matrix(1 0 0 1 2933.4 322)">Black</text>
  <line style="fill:none;stroke:black;opacity:1;stroke-width:0.5;" x1="263" x2="3036" y1="1903" y2="1903"/>
  <g transform="matrix(1 0 0 1 263 1933)">
   <path d="M9.24805 0.830078Q10.8691 0.830078 12.2949 0.214844Q13.7207-0.400391 14.8096-1.49414Q15.8984-2.58789 16.5186-4.01367Q17.1387-5.43945 17.1387-7.05078Q17.1387-8.66211 16.5186-10.0879Q15.8984-11.5137 14.8047-12.6074Q13.7109-13.7012 12.2852-14.3164Q10.8594-14.9316 9.23828-14.9316Q7.62695-14.9316 6.20117-14.3164Q4.77539-13.7012 3.69141-12.6074Q2.60742-11.5137 1.9873-10.0879Q1.36719-8.66211 1.36719-7.05078Q1.36719-5.43945 1.9873-4.01367Q2.60742-2.58789 3.69629-1.49414Q4.78516-0.400391 6.21094 0.214844Q7.63672 0.830078 9.24805 0.830078ZM9.24805-0.654297Q7.91992-0.654297 6.7627-1.14746Q5.60547-1.64062 4.73145-2.51953Q3.85742-3.39844 3.36426-4.56055Q2.87109-5.72266 2.87109-7.05078Q2.87109-8.37891 3.35938-9.54102Q3.84766-10.7031 4.72168-11.582Q5.5957-12.4609 6.75293-12.9541Q7.91016-13.4473 9.23828-13.4473Q10.5762-13.4473 11.7334-12.9541Q12.8906-12.4609 13.7695-11.582Q14.6484-10.7031 15.1465-9.54102Q15.6445-8.37891 15.6445-7.05078Q15.6445-5.72266 15.1514-4.56055Q14.6582-3.39844 13.7842-2.51953Q12.9102-1.64062 11.748-1.14746Q10.5859-0.654297 9.24805-0.654297ZM5.6543-7.05078Q5.6543-6.72852 5.85938-6.52832Q6.06445-6.32812 6.40625-6.32812L8.51562-6.32812L8.51562-4.20898Q8.51562-3.88672 8.71094-3.67676Q8.90625-3.4668 9.23828-3.4668Q9.56055-3.4668 9.77051-3.67676Q9.98047-3.88672 9.98047-4.20898L9.98047-6.32812L12.0898-6.32812Q12.4219-6.32812 12.627-6.52832Q12.832-6.72852 12.832-7.05078Q12.832-7.38281 12.627-7.58789Q12.4219-7.79297 12.0898-7.79297L9.98047-7.79297L9.98047-9.90234Q9.98047-10.2344 9.77051-10.4443Q9.56055-10.6543 9.23828-10.6543Q8.90625-10.6543 8.71094-10.4443Q8.51562-10.2344 8.51562-9.90234L8.51562-7.79297L6.40625-7.79297Q6.06445-7.79297 5.85938-7.58789Q5.6543-7.38281 5.6543-7.05078Z"/>
  </g>
  <g transform="matrix(1 0 0 1 281.867 1933)">
   <path d="M11.709 2.91016Q13.75 2.91016 15.5518 2.12891Q17.3535 1.34766 18.7305-0.0292969Q20.1074-1.40625 20.8887-3.20801Q21.6699-5.00977 21.6699-7.05078Q21.6699-9.0918 20.8887-10.8936Q20.1074-12.6953 18.7305-14.0723Q17.3535-15.4492 15.5469-16.2305Q13.7402-17.0117 11.6992-17.0117Q9.6582-17.0117 7.85645-16.2305Q6.05469-15.4492 4.68262-14.0723Q3.31055-12.6953 2.5293-10.8936Q1.74805-9.0918 1.74805-7.05078Q1.74805-5.00977 2.5293-3.20801Q3.31055-1.40625 4.6875-0.0292969Q6.06445 1.34766 7.86621 2.12891Q9.66797 2.91016 11.709 2.91016ZM11.709 1.25Q9.98047 1.25 8.47656 0.605469Q6.97266-0.0390625 5.83496-1.17676Q4.69727-2.31445 4.05762-3.81836Q3.41797-5.32227 3.41797-7.05078Q3.41797-8.7793 4.05762-10.2832Q4.69727-11.7871 5.83008-12.9297Q6.96289-14.0723 8.4668-14.7119Q9.9707-15.3516 11.6992-15.3516Q13.4277-15.3516 14.9316-14.7119Q16.4355-14.0723 17.5781-12.9297Q18.7207-11.7871 19.3652-10.2832Q20.0098-8.7793 20.0098-7.05078Q20.0098-5.32227 19.3701-3.81836Q18.7305-2.31445 17.5928-1.17676Q16.4551-0.0390625 14.9463 0.605469Q13.4375 1.25 11.709 1.25ZM7.17773-7.05078Q7.17773-6.69922 7.41211-6.47461Q7.64648-6.25 8.01758-6.25L10.8887-6.25L10.8887-3.36914Q10.8887-2.99805 11.1133-2.76855Q11.3379-2.53906 11.6895-2.53906Q12.0605-2.53906 12.29-2.76855Q12.5195-2.99805 12.5195-3.36914L12.5195-6.25L15.4004-6.25Q15.7715-6.25 16.001-6.47461Q16.2305-6.69922 16.2305-7.05078Q16.2305-7.42188 16.001-7.65137Q15.7715-7.88086 15.4004-7.88086L12.5195-7.88086L12.5195-10.752Q12.5195-11.1328 12.29-11.3623Q12.0605-11.5918 11.6895-11.5918Q11.3379-11.5918 11.1133-11.3574Q10.8887-11.123 10.8887-10.752L10.8887-7.88086L8.01758-7.88086Q7.63672-7.88086 7.40723-7.65137Q7.17773-7.42188 7.17773-7.05078Z"/>
  </g>
  <g transform="matrix(1 0 0 1 305.646 1933)">
   <path d="M14.9707 5.66406Q17.0605 5.66406 18.96 5.01465Q20.8594 4.36523 22.4512 3.19336Q24.043 2.02148 25.2197 0.429688Q26.3965-1.16211 27.0459-3.06641Q27.6953-4.9707 27.6953-7.05078Q27.6953-9.14062 27.0459-11.04Q26.3965-12.9395 25.2197-14.5312Q24.043-16.123 22.4512-17.2998Q20.8594-18.4766 18.9551-19.126Q17.0508-19.7754 14.9609-19.7754Q12.8711-19.7754 10.9717-19.126Q9.07227-18.4766 7.48535-17.2998Q5.89844-16.123 4.72168-14.5312Q3.54492-12.9395 2.90039-11.04Q2.25586-9.14062 2.25586-7.05078Q2.25586-4.9707 2.90527-3.06641Q3.55469-1.16211 4.72656 0.429688Q5.89844 2.02148 7.49023 3.19336Q9.08203 4.36523 10.9814 5.01465Q12.8809 5.66406 14.9707 5.66406ZM14.9707 3.84766Q13.1641 3.84766 11.5283 3.2959Q9.89258 2.74414 8.53516 1.74805Q7.17773 0.751953 6.17676-0.610352Q5.17578-1.97266 4.62891-3.6084Q4.08203-5.24414 4.08203-7.05078Q4.08203-8.86719 4.62891-10.5029Q5.17578-12.1387 6.17188-13.501Q7.16797-14.8633 8.52539-15.8594Q9.88281-16.8555 11.5186-17.4023Q13.1543-17.9492 14.9609-17.9492Q16.7773-17.9492 18.4131-17.4023Q20.0488-16.8555 21.4111-15.8594Q22.7734-14.8633 23.7695-13.501Q24.7656-12.1387 25.3174-10.5029Q25.8691-8.86719 25.8691-7.05078Q25.8789-5.24414 25.332-3.6084Q24.7852-1.97266 23.7842-0.610352Q22.7832 0.751953 21.4209 1.74805Q20.0586 2.74414 18.4229 3.2959Q16.7871 3.84766 14.9707 3.84766ZM9.19922-7.05078Q9.19922-6.66992 9.45801-6.4209Q9.7168-6.17188 10.1172-6.17188L14.0625-6.17188L14.0625-2.2168Q14.0625-1.81641 14.3115-1.55762Q14.5605-1.29883 14.9512-1.29883Q15.3516-1.29883 15.6104-1.55273Q15.8691-1.80664 15.8691-2.2168L15.8691-6.17188L19.8242-6.17188Q20.2246-6.17188 20.4785-6.4209Q20.7324-6.66992 20.7324-7.05078Q20.7324-7.46094 20.4785-7.71484Q20.2246-7.96875 19.8242-7.96875L15.8691-7.96875L15.8691-11.9141Q15.8691-12.3242 15.6104-12.583Q15.3516-12.8418 14.9512-12.8418Q14.5605-12.8418 14.3115-12.583Q14.0625-12.3242 14.0625-11.9141L14.0625-7.96875L10.1172-7.96875Q9.70703-7.96875 9.45312-7.71484Q9.19922-7.46094 9.19922-7.05078Z"/>
  </g>
  <text style="stroke:none;fill:black;font-family:sans-serif;font-size:13;font-weight:bold;" transform="matrix(1 0 0 1 263 1953)">Design Variations</text>
  <text style="stroke:none;fill:black;font-family:sans-serif;font-size:13;" transform="matrix(1 0 0 1 263 1971)">Symbols are supported in up to nine weights and three scales.</text>
  <text style="stroke:none;fill:black;font-family:sans-serif;font-size:13;" transform="matrix(1 0 0 1 263 1989)">For optimal layout with text and other symbols, vertically align</text>
  <text style="stroke:none;fill:black;font-family:sans-serif;font-size:13;" transform="matrix(1 0 0 1 263 2007)">symbols with the adjacent text.</text>
  <line style="fill:none;stroke:#00AEEF;stroke-width:0.5;opacity:1.0;" x1="776" x2="776" y1="1919" y2="1933"/>
  <g transform="matrix(1 0 0 1 776 1933)">
   <path d="M3.31055 0.15625Q3.70117 0.15625 3.91602-0.00976562Q4.13086-0.175781 4.26758-0.585938L5.52734-4.0332L11.2891-4.0332L12.5488-0.585938Q12.6855-0.175781 12.9004-0.00976562Q13.1152 0.15625 13.4961 0.15625Q13.8867 0.15625 14.1162-0.0585938Q14.3457-0.273438 14.3457-0.644531Q14.3457-0.869141 14.2383-1.17188L9.6582-13.3691Q9.48242-13.8184 9.17969-14.043Q8.87695-14.2676 8.4082-14.2676Q7.5-14.2676 7.17773-13.3789L2.59766-1.16211Q2.49023-0.859375 2.49023-0.634766Q2.49023-0.263672 2.70996-0.0537109Q2.92969 0.15625 3.31055 0.15625ZM6.00586-5.51758L8.37891-12.0898L8.42773-12.0898L10.8008-5.51758Z"/>
  </g>
  <line style="fill:none;stroke:#00AEEF;stroke-width:0.5;opacity:1.0;" x1="793.197" x2="793.197" y1="1919" y2="1933"/>
  <text style="stroke:none;fill:black;font-family:sans-serif;font-size:13;font-weight:bold;" transform="matrix(1 0 0 1 776 1953)">Margins</text>
  <text style="stroke:none;fill:black;font-family:sans-serif;font-size:13;" transform="matrix(1 0 0 1 776 1971)">Leading and trailing margins on the left and right side of each symbol</text>
  <text style="stroke:none;fill:black;font-family:sans-serif;font-size:13;" transform="matrix(1 0 0 1 776 1989)">can be adjusted by modifying the x-location of the margin guidelines.</text>
  <text style="stroke:none;fill:black;font-family:sans-serif;font-size:13;" transform="matrix(1 0 0 1 776 2007)">Modifications are automatically applied proportionally to all</text>
  <text style="stroke:none;fill:black;font-family:sans-serif;font-size:13;" transform="matrix(1 0 0 1 776 2025)">scales and weights.</text>
  <g transform="matrix(1 0 0 1 1289 1933)">
   <path d="M2.8418 1.86523L4.54102 3.57422Q5.18555 4.22852 5.90332 4.17969Q6.62109 4.13086 7.31445 3.35938L18.0078-8.42773L17.041-9.4043L6.42578 2.27539Q6.16211 2.57812 5.89355 2.61719Q5.625 2.65625 5.27344 2.30469L4.10156 1.14258Q3.75 0.791016 3.79395 0.522461Q3.83789 0.253906 4.14062-0.0195312L15.6152-10.8203L14.6387-11.7871L3.04688-0.898438Q2.30469-0.214844 2.25098 0.498047Q2.19727 1.21094 2.8418 1.86523ZM9.25781-16.3281Q8.94531-16.0254 8.90625-15.6348Q8.86719-15.2441 9.04297-14.9512Q9.21875-14.6777 9.55566-14.541Q9.89258-14.4043 10.3809-14.5215Q11.4746-14.7754 12.5977-14.7314Q13.7207-14.6875 14.7949-13.9844L14.209-12.5293Q13.9551-11.9043 14.0674-11.4404Q14.1797-10.9766 14.5801-10.5664L16.875-8.25195Q17.2363-7.88086 17.5781-7.82227Q17.9199-7.76367 18.3398-7.8418L19.4043-8.03711L20.0684-7.36328L20.0293-6.80664Q20-6.43555 20.1221-6.12305Q20.2441-5.81055 20.6055-5.44922L21.3672-4.70703Q21.7285-4.3457 22.1533-4.33105Q22.5781-4.31641 22.9297-4.66797L25.8398-7.58789Q26.1914-7.93945 26.1816-8.35449Q26.1719-8.76953 25.8105-9.13086L25.0391-9.89258Q24.6875-10.2539 24.3799-10.3857Q24.0723-10.5176 23.7109-10.4883L23.1348-10.4395L22.4902-11.0742L22.7344-12.1973Q22.832-12.6172 22.6953-12.9834Q22.5586-13.3496 22.1191-13.7891L19.9219-15.9766Q18.6719-17.2168 17.2607-17.8369Q15.8496-18.457 14.4189-18.4814Q12.9883-18.5059 11.665-17.959Q10.3418-17.4121 9.25781-16.3281ZM10.752-15.957Q11.6602-16.6211 12.7002-16.9043Q13.7402-17.1875 14.8047-17.085Q15.8691-16.9824 16.8701-16.5137Q17.8711-16.0449 18.7012-15.2051L21.1328-12.793Q21.3086-12.6172 21.3525-12.4512Q21.3965-12.2852 21.3379-12.0312L21.0156-10.5469L22.5195-9.0625L23.5059-9.12109Q23.6914-9.13086 23.7891-9.09668Q23.8867-9.0625 24.0332-8.91602L24.6094-8.33984L22.168-5.89844L21.5918-6.47461Q21.4453-6.62109 21.4062-6.71875Q21.3672-6.81641 21.377-7.01172L21.4453-7.98828L19.9512-9.47266L18.4277-9.21875Q18.1836-9.16992 18.042-9.2041Q17.9004-9.23828 17.7148-9.41406L15.7129-11.416Q15.5176-11.5918 15.4932-11.7529Q15.4688-11.9141 15.5859-12.1875L16.4648-14.2773Q15.293-15.3711 13.8281-15.791Q12.3633-16.2109 10.8398-15.7617Q10.7227-15.7324 10.6885-15.8057Q10.6543-15.8789 10.752-15.957Z"/>
  </g>
  <text style="stroke:none;fill:black;font-family:sans-serif;font-size:13;font-weight:bold;" transform="matrix(1 0 0 1 1289 1953)">Exporting</text>
  <text style="stroke:none;fill:black;font-family:sans-serif;font-size:13;" transform="matrix(1 0 0 1 1289 1971)">Symbols should be outlined when exporting to ensure the</text>
  <text style="stroke:none;fill:black;font-family:sans-serif;font-size:13;" transform="matrix(1 0 0 1 1289 1989)">design is preserved when submitting to Xcode.</text>
  <text id="template-version" style="stroke:none;fill:black;font-family:sans-serif;font-size:13;text-anchor:end;" transform="matrix(1 0 0 1 3036 1933)">Template v.3.0</text>
  <text style="stroke:none;fill:black;font-family:sans-serif;font-size:13;text-anchor:end;" transform="matrix(1 0 0 1 3036 1951)">Requires Xcode 13 or greater</text>
  <text id="descriptive-name" style="stroke:none;fill:black;font-family:sans-serif;font-size:13;text-anchor:end;" transform="matrix(1 0 0 1 3036 1969)">Generated from ladybug</text>
  <text style="stroke:none;fill:black;font-family:sans-serif;font-size:13;text-anchor:end;" transform="matrix(1 0 0 1 3036 1987)">Typeset at 100 points</text>
  <text style="stroke:none;fill:black;font-family:sans-serif;font-size:13;" transform="matrix(1 0 0 1 263 726)">Small</text>
  <text style="stroke:none;fill:black;font-family:sans-serif;font-size:13;" transform="matrix(1 0 0 1 263 1156)">Medium</text>
  <text style="stroke:none;fill:black;font-family:sans-serif;font-size:13;" transform="matrix(1 0 0 1 263 1586)">Large</text>
 </g>
 <g id="Guides">
  <g id="H-reference" style="fill:#27AAE1;stroke:none;" transform="matrix(1 0 0 1 339 696)">
   <path d="M0.993347 0L3.6377 0L29.3282-67.1326L30.0301-67.1326L30.0301-70.459L28.1227-70.459ZM11.6882-24.4797L46.9818-24.4797L46.2311-26.7288L12.4382-26.7288ZM55.1193 0L57.7637 0L30.6381-70.459L29.4327-70.459L29.4327-67.1326Z"/>
  </g>
  <line id="Baseline-S" style="fill:none;stroke:#27AAE1;opacity:1;stroke-width:0.5;" x1="263" x2="3036" y1="696" y2="696"/>
  <line id="Capline-S" style="fill:none;stroke:#27AAE1;opacity:1;stroke-width:0.5;" x1="263" x2="3036" y1="625.541" y2="625.541"/>
  <g id="H-reference" style="fill:#27AAE1;stroke:none;" transform="matrix(1 0 0 1 339 1126)">
   <path d="M0.993347 0L3.6377 0L29.3282-67.1326L30.0301-67.1326L30.0301-70.459L28.1227-70.459ZM11.6882-24.4797L46.9818-24.4797L46.2311-26.7288L12.4382-26.7288ZM55.1193 0L57.7637 0L30.6381-70.459L29.4327-70.459L29.4327-67.1326Z"/>
  </g>
  <line id="Baseline-M" style="fill:none;stroke:#27AAE1;opacity:1;stroke-width:0.5;" x1="263" x2="3036" y1="1126" y2="1126"/>
  <line id="Capline-M" style="fill:none;stroke:#27AAE1;opacity:1;stroke-width:0.5;" x1="263" x2="3036" y1="1055.54" y2="1055.54"/>
  <g id="H-reference" style="fill:#27AAE1;stroke:none;" transform="matrix(1 0 0 1 339 1556)">
   <path d="M0.993347 0L3.6377 0L29.3282-67.1326L30.0301-67.1326L30.0301-70.459L28.1227-70.459ZM11.6882-24.4797L46.9818-24.4797L46.2311-26.7288L12.4382-26.7288ZM55.1193 0L57.7637 0L30.6381-70.459L29.4327-70.459L29.4327-67.1326Z"/>
  </g>
  <line id="Baseline-L" style="fill:none;stroke:#27AAE1;opacity:1;stroke-width:0.5;" x1="263" x2="3036" y1="1556" y2="1556"/>
  <line id="Capline-L" style="fill:none;stroke:#27AAE1;opacity:1;stroke-width:0.5;" x1="263" x2="3036" y1="1485.54" y2="1485.54"/>
  <line id="left-margin-Ultralight-S" style="fill:none;stroke:#00AEEF;stroke-width:0.5;opacity:1.0;" x1="511.513" x2="511.513" y1="600.785" y2="720.121"/>
  <line id="right-margin-Ultralight-S" style="fill:none;stroke:#00AEEF;stroke-width:0.5;opacity:1.0;" x1="607.909" x2="607.909" y1="600.785" y2="720.121"/>
  <line id="left-margin-Regular-S" style="fill:none;stroke:#00AEEF;stroke-width:0.5;opacity:1.0;" x1="1398.01" x2="1398.01" y1="600.785" y2="720.121"/>
  <line id="right-margin-Regular-S" style="fill:none;stroke:#00AEEF;stroke-width:0.5;opacity:1.0;" x1="1501.68" x2="1501.68" y1="600.785" y2="720.121"/>
  <line id="left-margin-Black-S" style="fill:none;stroke:#00AEEF;stroke-width:0.5;opacity:1.0;" x1="2877.69" x2="2877.69" y1="600.785" y2="720.121"/>
  <line id="right-margin-Black-S" style="fill:none;stroke:#00AEEF;stroke-width:0.5;opacity:1.0;" x1="2989.11" x2="2989.11" y1="600.785" y2="720.121"/>
 </g>
 <g id="Symbols">
  <g id="Black-S" transform="matrix(1 0 0 1 2877.69 696)">
   <path d="M55.7129 14.7461Q66.9434 14.7461 75.3662 9.96094Q83.7891 5.17578 88.4766-3.44238Q93.1641-12.0605 93.1641-23.4863Q93.1641-29.6387 91.5039-35.6445Q89.8438-41.6504 86.7432-46.9971Q83.6426-52.3438 79.2969-56.3965Q79.0039-62.4512 76.0254-66.7236Q73.0469-70.9961 67.8711-73.2666Q62.6953-75.5371 55.7129-75.5371Q48.7793-75.5371 43.5791-73.2666Q38.3789-70.9961 35.4248-66.7236Q32.4707-62.4512 32.1289-56.3965Q25.6348-50.3418 21.9482-41.5039Q18.2617-32.666 18.2617-23.4863Q18.2617-12.0605 22.9492-3.44238Q27.6367 5.17578 36.084 9.96094Q44.5312 14.7461 55.7129 14.7461ZM55.7129-43.75Q60.498-43.75 65.4053-44.4092Q70.3125-45.0684 74.4629-46.2402Q77.1484-43.0664 79.0039-39.3555Q80.8594-35.6445 81.8359-31.6406Q82.8125-27.6367 82.8125-23.4863Q82.8125-15.0879 79.4434-8.81348Q76.0742-2.53906 69.9707 0.927734Q63.8672 4.39453 55.7129 4.39453Q47.5586 4.39453 41.4551 0.927734Q35.3516-2.53906 31.9824-8.81348Q28.6133-15.0879 28.6133-23.4863Q28.6133-27.6367 29.5898-31.6406Q30.5664-35.6445 32.4219-39.3555Q34.2773-43.0664 36.9629-46.2402Q41.1621-45.0684 46.0449-44.4092Q50.9277-43.75 55.7129-43.75ZM51.8066 6.78711L59.6191 6.78711L59.6191-35.5957Q59.6191-37.2559 58.4961-38.3789Q57.373-39.502 55.7129-39.502Q54.0527-39.502 52.9297-38.3789Q51.8066-37.2559 51.8066-35.5957ZM43.0176-31.0547Q45.459-31.0547 47.2168-32.8125Q48.9746-34.5703 48.9746-37.0117Q48.9746-39.4531 47.2168-41.2109Q45.459-42.9688 43.0176-42.9688Q40.625-42.9688 38.8672-41.2109Q37.1094-39.4531 37.1094-37.0117Q37.1094-34.5703 38.8672-32.8125Q40.625-31.0547 43.0176-31.0547ZM38.2324-15.3809Q40.9668-15.3809 42.9443-17.3584Q44.9219-19.3359 44.9219-22.1191Q44.9219-24.8535 42.9443-26.8066Q40.9668-28.7598 38.2324-28.7598Q35.4492-28.7598 33.4717-26.8066Q31.4941-24.8535 31.4941-22.1191Q31.4941-19.3359 33.4717-17.3584Q35.4492-15.3809 38.2324-15.3809ZM43.0176-1.9043Q45.166-1.9043 46.7285-3.44238Q48.291-4.98047 48.291-7.12891Q48.291-9.27734 46.7285-10.8398Q45.166-12.4023 43.0176-12.4023Q40.8691-12.4023 39.3066-10.8398Q37.7441-9.27734 37.7441-7.12891Q37.7441-4.98047 39.3066-3.44238Q40.8691-1.9043 43.0176-1.9043ZM68.4082-31.0547Q70.8496-31.0547 72.583-32.8125Q74.3164-34.5703 74.3164-37.0117Q74.3164-39.4531 72.583-41.2109Q70.8496-42.9688 68.4082-42.9688Q65.9668-42.9688 64.209-41.2109Q62.4512-39.4531 62.4512-37.0117Q62.4512-34.5703 64.209-32.8125Q65.9668-31.0547 68.4082-31.0547ZM73.1934-15.3809Q75.9766-15.3809 77.9541-17.3584Q79.9316-19.3359 79.9316-22.1191Q79.9316-24.8535 77.9541-26.8066Q75.9766-28.7598 73.1934-28.7598Q70.459-28.7598 68.4814-26.8066Q66.5039-24.8535 66.5039-22.1191Q66.5039-19.3359 68.4814-17.3584Q70.459-15.3809 73.1934-15.3809ZM68.4082-1.9043Q70.5566-1.9043 72.1191-3.44238Q73.6816-4.98047 73.6816-7.12891Q73.6816-9.27734 72.1191-10.8398Q70.5566-12.4023 68.4082-12.4023Q66.2598-12.4023 64.6973-10.8398Q63.1348-9.27734 63.1348-7.12891Q63.1348-4.98047 64.6973-3.44238Q66.2598-1.9043 68.4082-1.9043ZM37.9883-74.5605L40.0391-74.0234Q40.918-73.8281 41.0889-73.584Q41.2598-73.3398 41.1621-72.998L40.2832-69.3848L50.4395-69.4336L50.7812-72.6074Q51.1719-76.3672 49.3652-79.1016Q47.5586-81.8359 43.7988-83.1055L41.1133-84.0332Q38.6719-84.8633 36.9873-83.7891Q35.3027-82.7148 34.668-80.7861Q34.0332-78.8574 34.79-77.0264Q35.5469-75.1953 37.9883-74.5605ZM73.4375-74.5605Q75.8789-75.1953 76.6357-77.0264Q77.3926-78.8574 76.7578-80.7861Q76.123-82.7148 74.4385-83.7891Q72.7539-84.8633 70.3125-84.0332L67.627-83.1055Q63.916-81.8359 62.085-79.1016Q60.2539-76.3672 60.6445-72.6074L60.9863-69.4336L71.1426-69.3848L70.2637-72.998Q70.2148-73.3398 70.3613-73.584Q70.5078-73.8281 71.3867-74.0234ZM34.1309-47.7051L21.9238-57.0312Q19.9707-58.5449 17.9443-58.5205Q15.918-58.4961 14.502-56.7871Q13.1348-55.1758 13.3789-53.0273Q13.623-50.8789 15.5273-49.4141L27.7832-40.0879ZM24.6582-30.8594L13.1836-30.8105Q10.791-30.8105 9.30176-29.3945Q7.8125-27.9785 7.8125-25.7324Q7.8125-23.4863 9.30176-22.0947Q10.791-20.7031 13.1836-20.7031L24.6582-20.752ZM26.2207-5.95703L17.627 1.31836Q15.8203 2.88086 15.5273 5.00488Q15.2344 7.12891 16.6016 8.83789Q18.0176 10.498 20.1416 10.5713Q22.2656 10.6445 24.0723 9.08203L32.666 1.80664ZM77.2949-47.7051L83.6426-40.0879L95.8984-49.4141Q97.8027-50.8789 98.0713-53.0273Q98.3398-55.1758 96.9238-56.7871Q95.5566-58.4961 93.5059-58.5205Q91.4551-58.5449 89.502-57.0312ZM86.7676-30.8594L86.7676-20.752L98.2422-20.7031Q100.635-20.7031 102.124-22.0947Q103.613-23.4863 103.613-25.7324Q103.613-27.9785 102.124-29.3945Q100.635-30.8105 98.2422-30.8105ZM85.2051-5.95703L78.7598 1.80664L87.3535 9.08203Q89.209 10.6445 91.333 10.5713Q93.457 10.498 94.8242 8.83789Q96.2402 7.12891 95.9473 5.00488Q95.6543 2.88086 93.7988 1.31836Z"/>
  </g>
  <g id="Regular-S" transform="matrix(1 0 0 1 1398.01 696)">
   <path d="M51.8555 10.791Q62.0605 10.791 69.751 6.4209Q77.4414 2.05078 81.6895-5.78613Q85.9375-13.623 85.9375-24.1211Q85.9375-29.9316 84.3262-35.6201Q82.7148-41.3086 79.6875-46.2891Q76.6602-51.2695 72.5098-54.9805Q72.4609-60.4004 69.8975-64.2334Q67.334-68.0664 62.7197-70.0928Q58.1055-72.1191 51.8555-72.1191Q45.5566-72.1191 40.9424-70.0684Q36.3281-68.0176 33.7646-64.1846Q31.2012-60.3516 31.1523-54.9805Q25-49.4629 21.3623-41.2109Q17.7246-32.959 17.7246-24.1211Q17.7246-13.623 21.9971-5.78613Q26.2695 2.05078 33.9355 6.4209Q41.6016 10.791 51.8555 10.791ZM51.8555-45.3125Q56.7871-45.3125 61.4502-46.167Q66.1133-47.0215 69.3848-48.4863Q71.582-46.0938 73.8525-42.5293Q76.123-38.9648 77.6367-34.3262Q79.1504-29.6875 79.1504-24.1211Q79.1504-15.7227 75.7324-9.39941Q72.3145-3.07617 66.1621 0.439453Q60.0098 3.95508 51.8555 3.95508Q43.6523 3.95508 37.5 0.439453Q31.3477-3.07617 27.9541-9.39941Q24.5605-15.7227 24.5605-24.1211Q24.5605-29.6875 26.0498-34.3262Q27.5391-38.9648 29.8096-42.5293Q32.0801-46.0938 34.3262-48.4863Q37.5977-47.0215 42.2363-46.167Q46.875-45.3125 51.8555-45.3125ZM48.8281 5.9082L54.4922 5.9082L54.4922-38.1348Q54.4922-39.3066 53.6621-40.1367Q52.832-40.9668 51.6602-40.9668Q50.4883-40.9668 49.6582-40.1367Q48.8281-39.3066 48.8281-38.1348ZM39.6973-32.1289Q41.6992-32.1289 43.1152-33.5693Q44.5312-35.0098 44.5312-36.9629Q44.5312-38.9648 43.1152-40.3809Q41.6992-41.7969 39.6973-41.7969Q37.7441-41.7969 36.3281-40.3809Q34.9121-38.9648 34.9121-36.9629Q34.9121-35.0098 36.3281-33.5693Q37.7441-32.1289 39.6973-32.1289ZM35.1562-17.041Q37.4512-17.041 39.1113-18.7012Q40.7715-20.3613 40.7715-22.7051Q40.7715-25.0488 39.1113-26.6846Q37.4512-28.3203 35.1562-28.3203Q32.8125-28.3203 31.1523-26.6846Q29.4922-25.0488 29.4922-22.7051Q29.4922-20.3613 31.1523-18.7012Q32.8125-17.041 35.1562-17.041ZM39.6973-3.95508Q41.6016-3.95508 42.9199-5.27344Q44.2383-6.5918 44.2383-8.44727Q44.2383-10.3516 42.9199-11.6943Q41.6016-13.0371 39.6973-13.0371Q37.8418-13.0371 36.5234-11.6943Q35.2051-10.3516 35.2051-8.44727Q35.2051-6.5918 36.5234-5.27344Q37.8418-3.95508 39.6973-3.95508ZM63.9648-32.1289Q65.9668-32.1289 67.3584-33.5693Q68.75-35.0098 68.75-36.9629Q68.75-38.9648 67.3584-40.3809Q65.9668-41.7969 63.9648-41.7969Q61.9629-41.7969 60.5469-40.3809Q59.1309-38.9648 59.1309-36.9629Q59.1309-35.0098 60.5469-33.5693Q61.9629-32.1289 63.9648-32.1289ZM68.5059-17.041Q70.8496-17.041 72.5098-18.7012Q74.1699-20.3613 74.1699-22.7051Q74.1699-25.0488 72.5098-26.6846Q70.8496-28.3203 68.5059-28.3203Q66.2109-28.3203 64.5508-26.6846Q62.8906-25.0488 62.8906-22.7051Q62.8906-20.3613 64.5508-18.7012Q66.2109-17.041 68.5059-17.041ZM63.9648-3.95508Q65.8203-3.95508 67.1631-5.27344Q68.5059-6.5918 68.5059-8.44727Q68.5059-10.3516 67.1631-11.6943Q65.8203-13.0371 63.9648-13.0371Q62.0605-13.0371 60.7422-11.6943Q59.4238-10.3516 59.4238-8.44727Q59.4238-6.5918 60.7422-5.27344Q62.0605-3.95508 63.9648-3.95508ZM35.2539-74.0723L37.3535-73.4375Q38.623-73.0469 39.1357-72.3877Q39.6484-71.7285 39.4043-70.7031L38.9648-68.9941L45.3613-69.043L45.5566-70.8496Q45.8984-73.8281 44.4824-76.001Q43.0664-78.1738 40.0391-79.1992L37.3535-80.127Q35.7422-80.6641 34.6191-79.9805Q33.4961-79.2969 33.1055-78.0762Q32.7148-76.8555 33.1787-75.6836Q33.6426-74.5117 35.2539-74.0723ZM68.4082-74.0723Q70.0195-74.5117 70.5078-75.6836Q70.9961-76.8555 70.5811-78.0762Q70.166-79.2969 69.043-79.9805Q67.9199-80.6641 66.3086-80.127L63.623-79.1992Q60.5957-78.1738 59.2041-76.001Q57.8125-73.8281 58.1055-70.8496L58.3496-69.043L64.6973-68.9941L64.2578-70.7031Q64.0137-71.7285 64.5264-72.3877Q65.0391-73.0469 66.3086-73.4375ZM27.9297-47.5586L20.8496-53.6133Q19.6289-54.6387 18.2373-54.6875Q16.8457-54.7363 15.8691-53.5156Q14.8438-52.3926 15.1367-50.9766Q15.4297-49.5605 16.6016-48.5352L23.7305-42.4805ZM20.8984-29.6387L11.377-29.5898Q9.76562-29.5898 8.78906-28.6865Q7.8125-27.7832 7.8125-26.2695Q7.8125-24.8047 8.78906-23.9014Q9.76562-22.998 11.377-22.998L20.8984-23.0469ZM23.6816-7.22656L16.5527-1.17188Q15.3809-0.195312 15.1123 1.2207Q14.8438 2.63672 15.8203 3.80859Q16.7969 5.0293 18.2129 4.95605Q19.6289 4.88281 20.8008 3.85742L27.8809-2.14844ZM75.7324-47.5586L79.9316-42.4805L87.0605-48.5352Q88.2324-49.5605 88.5254-50.9766Q88.8184-52.3926 87.8418-53.5156Q86.8164-54.7363 85.4248-54.6875Q84.0332-54.6387 82.8125-53.6133ZM82.7637-29.6387L82.7637-23.0469L92.2852-22.998Q93.8965-22.998 94.873-23.9014Q95.8496-24.8047 95.8496-26.2695Q95.8496-27.7832 94.873-28.6865Q93.8965-29.5898 92.2852-29.5898ZM79.9805-7.22656L75.7812-2.19727L82.8613 3.85742Q84.082 4.88281 85.4736 4.95605Q86.8652 5.0293 87.8418 3.80859Q88.8672 2.63672 88.5742 1.2207Q88.2812-0.195312 87.1094-1.17188Z"/>
  </g>
  <g id="Ultralight-S" transform="matrix(1 0 0 1 511.513 696)">
   <path d="M48.1773 7.24869Q57.6103 7.24869 64.6423 3.12843Q71.6743-0.991821 75.5817-8.44269Q79.4891-15.8936 79.4891-25.8469Q79.4891-31.1577 77.9686-36.483Q76.4481-41.8083 73.7389-46.312Q71.0297-50.8156 67.469-53.7086Q67.466-58.5388 64.9479-62.2581Q62.4298-65.9775 58.0879-68.0946Q53.746-70.2118 48.1773-70.2118Q42.6506-70.2118 38.2858-68.0931Q33.9211-65.9744 31.4259-62.2547Q28.9307-58.535 28.9276-53.7086Q23.365-49.054 20.1363-41.4833Q16.9075-33.9127 16.9075-25.8469Q16.9075-15.8936 20.7939-8.44269Q24.6803-0.991821 31.7333 3.12843Q38.7863 7.24869 48.1773 7.24869ZM48.1773-47.2198Q53.6087-47.2198 58.794-48.2784Q63.9793-49.337 67.2958-50.8026Q70.2194-48.0011 72.4674-43.9598Q74.7154-39.9185 75.9792-35.2116Q77.243-30.5046 77.243-25.8469Q77.243-16.5855 73.621-9.64928Q69.9989-2.71301 63.4605 1.16577Q56.9221 5.04456 48.1773 5.04456Q39.4745 5.04456 32.9361 1.16577Q26.3977-2.71301 22.7547-9.64928Q19.1116-16.5855 19.1116-25.8469Q19.1116-30.4596 20.3056-35.0754Q21.4996-39.6912 23.7247-43.7553Q25.9499-47.8195 29.0588-50.8026Q32.4211-49.3828 37.582-48.3013Q42.7429-47.2198 48.1773-47.2198ZM47.1024 5.63583L49.2249 5.63583L49.2249-39.8605Q49.2249-40.3053 48.917-40.6132Q48.6092-40.921 48.1636-40.921Q47.718-40.921 47.4102-40.6132Q47.1024-40.3053 47.1024-39.8605ZM35.5652-32.946Q37.5671-32.946 38.9603-34.3864Q40.3534-35.8269 40.3534-37.78Q40.3534-39.782 38.9603-41.1755Q37.5671-42.569 35.5652-42.569Q33.6121-42.569 32.2186-41.1755Q30.825-39.782 30.825-37.78Q30.825-35.8727 32.2186-34.4093Q33.6121-32.946 35.5652-32.946ZM30.9784-17.3134Q33.2733-17.3134 34.911-18.951Q36.5486-20.5887 36.5486-22.9324Q36.5486-25.2304 34.911-26.8661Q33.2733-28.5019 30.9784-28.5019Q28.6804-28.5019 27.0428-26.8661Q25.4051-25.2304 25.4051-22.9324Q25.4051-20.5887 27.0428-18.951Q28.6804-17.3134 30.9784-17.3134ZM35.5652-4.49982Q37.2421-4.49982 38.4472-5.68199Q39.6523-6.86417 39.6523-8.58383Q39.6523-10.2608 38.4472-11.4445Q37.2421-12.6282 35.5652-12.6282Q33.8913-12.6282 32.6862-11.4445Q31.4812-10.2608 31.4812-8.58383Q31.4812-6.86417 32.6862-5.68199Q33.8913-4.49982 35.5652-4.49982ZM60.7864-32.946Q62.7426-32.946 64.1342-34.4093Q65.5258-35.8727 65.5258-37.78Q65.5258-39.782 64.1342-41.1755Q62.7426-42.569 60.7864-42.569Q58.7845-42.569 57.4139-41.1755Q56.0432-39.782 56.0432-37.78Q56.0432-35.8269 57.4364-34.3864Q58.8295-32.946 60.7864-32.946ZM65.4182-17.3134Q67.7162-17.3134 69.331-18.951Q70.9457-20.5887 70.9457-22.9324Q70.9457-25.2304 69.331-26.8661Q67.7162-28.5019 65.4182-28.5019Q63.0775-28.5019 61.4628-26.8661Q59.848-25.2304 59.848-22.9324Q59.848-20.5887 61.4628-18.951Q63.0775-17.3134 65.4182-17.3134ZM60.7864-4.49982Q62.5053-4.49982 63.689-5.68199Q64.8727-6.86417 64.8727-8.58383Q64.8727-10.2608 63.689-11.4445Q62.5053-12.6282 60.7864-12.6282Q59.1087-12.6282 57.9266-11.4445Q56.7444-10.2608 56.7444-8.58383Q56.7444-6.86417 57.9266-5.68199Q59.1087-4.49982 60.7864-4.49982ZM30.1682-74.9352L34.9014-72.5296Q36.0344-71.9116 36.4563-71.1842Q36.8782-70.4567 36.7249-69.2955L36.2854-66.4513L38.414-66.4543L38.8817-69.0788Q39.2235-70.8763 38.443-72.1184Q37.6625-73.3604 35.8162-74.3858L31.0867-76.9028Q30.5656-77.2133 30.1918-77.029Q29.818-76.8448 29.6318-76.4416Q29.4456-76.0384 29.546-75.6157Q29.6463-75.193 30.1682-74.9352ZM66.2285-74.9352Q66.7046-75.193 66.8068-75.6157Q66.909-76.0384 66.7439-76.4416Q66.5787-76.8448 66.1823-77.029Q65.786-77.2133 65.3099-76.9028L60.5804-74.3858Q58.6884-73.3604 57.9327-72.1184Q57.177-70.8763 57.515-69.0788L57.9865-66.4543L60.1112-66.4513L59.6718-69.2955Q59.4727-70.4567 59.8946-71.1842Q60.3165-71.9116 61.4952-72.5296ZM24.6147-48.1491L17.3073-54.0672Q16.8587-54.4571 16.33-54.4151Q15.8012-54.3732 15.4602-53.9246Q15.1161-53.4821 15.2046-52.9972Q15.2931-52.5124 15.7845-52.1683L23.3215-46.0678ZM17.9016-29.3663L9.06143-29.4083Q8.4938-29.4083 8.15315-29.0726Q7.8125-28.7369 7.8125-28.1769Q7.8125-27.5749 8.15315-27.2392Q8.4938-26.9035 9.10645-26.9035L17.9016-26.9066ZM22.319-7.09L15.1901-1.35345Q14.7453-0.967407 14.6584-0.505066Q14.5714-0.0427246 15.0032 0.402832Q15.2985 0.897217 15.8062 0.914764Q16.3139 0.932312 16.8045 0.54245L23.8396-5.05447ZM71.6003-48.0583L72.9843-45.9312L80.6122-52.1683Q81.1028-52.5124 81.1687-52.9972Q81.2347-53.4821 80.9395-53.9246Q80.5496-54.3732 80.0209-54.4151Q79.4922-54.4571 79.0436-54.0672ZM78.5408-29.3663L78.5408-26.9066L87.2902-26.9035Q87.8571-26.9035 88.2206-27.2392Q88.5841-27.5749 88.5841-28.1769Q88.5841-28.7369 88.2431-29.0726Q87.9021-29.4083 87.3352-29.4083ZM73.8953-7.22656L72.4663-5.14908L79.5464 0.54245Q80.0407 0.932312 80.547 0.914764Q81.0532 0.897217 81.3934 0.402832Q81.7833-0.0427246 81.7173-0.505066Q81.6513-0.967407 81.1607-1.35345Z"/>
  </g>
 </g>
</svg>
