<svg width="100" height="100" viewBox="0 0 100 100" fill="none" xmlns="http://www.w3.org/2000/svg">
<path fill-rule="evenodd" clip-rule="evenodd" d="M37.6955 75.2929H13.5744C10.5146 75.2929 8.12198 74.4222 6.39672 72.6807C4.67146 70.9391 3.80884 68.5547 3.80884 65.5274V20.6055C3.80884 17.5455 4.67146 15.1529 6.39672 13.4277C8.12198 11.7025 10.5146 10.8399 13.5744 10.8399H86.426C89.486 10.8399 91.8785 11.7025 93.6037 13.4277C95.3287 15.1529 96.1912 17.5455 96.1912 20.6055V65.5274C96.1912 68.5547 95.3287 70.9391 93.6037 72.6807C91.8785 74.4222 89.486 75.2929 86.426 75.2929H62.3537V82.0801H62.4026C63.3466 82.0801 64.1686 82.43 64.8684 83.1299C65.5683 83.8297 65.9182 84.6679 65.9182 85.6445C65.9182 86.6211 65.5683 87.4511 64.8684 88.1347C64.1686 88.8183 63.3466 89.1601 62.4026 89.1601H37.6467C36.6702 89.1601 35.832 88.8183 35.1321 88.1347C34.4323 87.4511 34.0823 86.6211 34.0823 85.6445C34.0823 84.6679 34.4323 83.8297 35.1321 83.1299C35.832 82.43 36.6702 82.0801 37.6467 82.0801H37.6955V75.2929ZM10.8401 65.4296C10.8401 67.2851 11.7841 68.2128 13.6721 68.2128H86.3284C88.2164 68.2128 89.1604 67.2851 89.1604 65.4296V20.703C89.1604 18.815 88.2164 17.8711 86.3284 17.8711H13.6721C11.7841 17.8711 10.8401 18.815 10.8401 20.703V65.4296Z" fill="black"/>
</svg>
