<svg width="100" height="100" viewBox="0 0 100 100" fill="none" xmlns="http://www.w3.org/2000/svg">
<path d="M12.3047 42.9932C12.3047 47.2575 13.1104 51.2695 14.7217 55.0293C16.333 58.7891 18.5628 62.0931 21.4111 64.9414C24.2595 67.7897 27.5554 70.0114 31.2988 71.6065C35.0423 73.2015 39.0625 73.999 43.3594 73.999C46.6472 73.999 49.7884 73.5107 52.7832 72.5342C55.778 71.5576 58.5287 70.1904 61.0351 68.4326L79.1992 86.6455C79.72 87.1338 80.2897 87.4918 80.9082 87.7197C81.5267 87.9476 82.1615 88.0615 82.8125 88.0615C84.2448 88.0615 85.4167 87.5895 86.3281 86.6455C87.2396 85.7015 87.6953 84.5133 87.6953 83.081C87.6953 82.3974 87.5733 81.7545 87.3291 81.1523C87.085 80.5501 86.7513 80.0211 86.3281 79.5654L68.2617 61.4502C70.1823 58.8786 71.6797 56.0221 72.7539 52.8809C73.8281 49.7396 74.3652 46.4437 74.3652 42.9932C74.3652 38.6963 73.5596 34.6761 71.9482 30.9326C70.3369 27.1891 68.1152 23.8932 65.2832 21.0449C62.4512 18.1966 59.1553 15.9668 55.3955 14.3555C51.6357 12.7441 47.6237 11.9385 43.3594 11.9385C39.0625 11.9385 35.0423 12.7441 31.2988 14.3555C27.5554 15.9668 24.2595 18.1966 21.4111 21.0449C18.5628 23.8932 16.333 27.1891 14.7217 30.9326C13.1104 34.6761 12.3047 38.6963 12.3047 42.9932ZM19.8242 42.9932C19.8242 39.738 20.4264 36.6862 21.6308 33.8379C22.8353 30.9895 24.5199 28.4912 26.6845 26.3428C28.8493 24.1943 31.3558 22.5097 34.2041 21.2891C37.0524 20.0683 40.1042 19.458 43.3594 19.458C46.6146 19.458 49.6582 20.0683 52.4902 21.2891C55.3223 22.5097 57.8207 24.1943 59.9853 26.3428C62.1501 28.4912 63.8428 30.9895 65.0635 33.8379C66.2842 36.6862 66.8945 39.738 66.8945 42.9932C66.8945 46.2484 66.2842 49.292 65.0635 52.124C63.8428 54.956 62.1501 57.4544 59.9853 59.6191C57.8207 61.7838 55.3223 63.4765 52.4902 64.6973C49.6582 65.9179 46.6146 66.5283 43.3594 66.5283C40.1042 66.5283 37.0524 65.9179 34.2041 64.6973C31.3558 63.4765 28.8493 61.7838 26.6845 59.6191C24.5199 57.4544 22.8353 54.956 21.6308 52.124C20.4264 49.292 19.8242 46.2484 19.8242 42.9932Z" fill="black"/>
</svg>
