<svg width="100" height="100" viewBox="0 0 100 100" fill="none" xmlns="http://www.w3.org/2000/svg">
<path d="M50.3106 86.9187C50.7663 86.9187 51.222 86.8943 51.6778 86.8455C52.1335 86.7966 52.6055 86.7722 53.0938 86.7722L55.3399 91.0691C55.5677 91.5248 55.9014 91.8585 56.3409 92.0701C56.7803 92.2817 57.2604 92.3549 57.7813 92.2898C58.888 92.0945 59.5228 91.4272 59.6856 90.2878L60.3692 85.5027C61.248 85.2423 62.1269 84.9493 63.0059 84.6238C63.8848 84.2983 64.7637 83.9565 65.6426 83.5984L69.1582 86.8211C69.972 87.6023 70.8997 87.7 71.9414 87.114C72.8528 86.5606 73.2109 85.7143 73.0157 84.575L71.9903 79.8386C72.7389 79.3178 73.4795 78.7644 74.212 78.1785C74.9444 77.5925 75.6361 76.9741 76.2871 76.323L80.7305 78.1297C81.8047 78.5528 82.7161 78.325 83.4649 77.4461C83.7578 77.088 83.9287 76.6567 83.9776 76.1521C84.0264 75.6476 83.9043 75.1837 83.6114 74.7605L81.0723 70.6589C81.5931 69.9103 82.0733 69.1209 82.5127 68.2908C82.9521 67.4607 83.3835 66.6225 83.8067 65.7761L88.6407 66.0203C89.1615 66.0203 89.6335 65.882 90.0567 65.6052C90.4798 65.3286 90.7728 64.9461 90.9356 64.4578C91.1309 63.9695 91.1472 63.4893 90.9844 63.0173C90.8216 62.5453 90.5449 62.1466 90.1543 61.821L86.3457 58.8425C86.5735 57.9637 86.777 57.0604 86.9561 56.1326C87.1351 55.2049 87.2734 54.269 87.3711 53.3249L91.9121 51.8601C93.0189 51.4695 93.5723 50.7371 93.5723 49.6628C93.5723 48.5561 93.0189 47.8074 91.9121 47.4167L87.3711 46.0007C87.2734 45.0242 87.1351 44.0802 86.9561 43.1687C86.777 42.2573 86.5735 41.3458 86.3457 40.4343L90.1543 37.4558C90.5449 37.1303 90.8135 36.7397 90.96 36.2839C91.1064 35.8282 91.0983 35.3562 90.9356 34.8679C90.7728 34.3797 90.4798 33.9972 90.0567 33.7205C89.6335 33.4438 89.1615 33.3217 88.6407 33.3542L83.8067 33.5496C83.3835 32.6707 82.9521 31.8243 82.5127 31.0105C82.0733 30.1967 81.5931 29.4155 81.0723 28.6667L83.6114 24.5652C83.9043 24.142 84.0264 23.6863 83.9776 23.198C83.9287 22.7098 83.7578 22.2866 83.4649 21.9285C82.7161 21.0171 81.8047 20.7729 80.7305 21.196L76.2871 22.9538C75.6361 22.3354 74.9444 21.725 74.212 21.1228C73.4795 20.5206 72.7389 19.9591 71.9903 19.4382L73.0157 14.7507C73.2109 13.5463 72.8528 12.7 71.9414 12.2117C70.8997 11.6258 69.972 11.7397 69.1582 12.5535L65.6426 15.6785C64.7637 15.3205 63.8848 14.9868 63.0059 14.6775C62.1269 14.3683 61.248 14.0672 60.3692 13.7742L59.6856 9.03782C59.5228 7.93108 58.888 7.26378 57.7813 7.03592C57.2604 6.97078 56.7803 7.04402 56.3409 7.25562C55.9014 7.46722 55.5677 7.78462 55.3399 8.20782L53.0938 12.5535C52.6055 12.5209 52.1335 12.4965 51.6778 12.4802C51.222 12.464 50.7663 12.4558 50.3106 12.4558C49.7897 12.4558 49.3096 12.464 48.8702 12.4802C48.4307 12.4965 47.9668 12.5209 47.4786 12.5535L45.1836 8.20782C44.6953 7.26376 43.8815 6.87312 42.7422 7.03592C41.6354 7.26378 41.017 7.93108 40.8868 9.03782L40.2032 13.7742C39.2917 14.0672 38.3965 14.3601 37.5176 14.6531C36.6387 14.9461 35.7761 15.2879 34.9297 15.6785L31.3653 12.5535C30.584 11.7397 29.6563 11.6258 28.5821 12.2117C27.6706 12.7 27.3288 13.5463 27.5567 14.7507L28.5332 19.4382C27.7845 19.9591 27.044 20.5206 26.3116 21.1228C25.5791 21.725 24.8874 22.3354 24.2364 22.9538L19.8418 21.196C18.7676 20.7729 17.8561 21.0171 17.1075 21.9285C16.7819 22.2866 16.6029 22.7098 16.5703 23.198C16.5377 23.6863 16.6517 24.1258 16.9121 24.5164L19.4512 28.6667C18.9304 29.4155 18.4502 30.1967 18.0108 31.0105C17.5713 31.8243 17.14 32.6707 16.7168 33.5496L11.8829 33.3542C11.362 33.3217 10.89 33.4438 10.4668 33.7205C10.0436 33.9972 9.75065 34.3797 9.58789 34.8679C9.42513 35.3562 9.41699 35.8282 9.56347 36.2839C9.70996 36.7397 9.99479 37.1303 10.418 37.4558L14.1778 40.4343C13.9499 41.3458 13.7464 42.2573 13.5674 43.1687C13.3884 44.0802 13.2663 45.0242 13.2012 46.0007L8.61133 47.4167C7.53711 47.8074 7 48.5561 7 49.6628C7 50.7696 7.53711 51.5021 8.61133 51.8601L13.2012 53.3249C13.2663 54.269 13.3884 55.2049 13.5674 56.1326C13.7464 57.0604 13.9499 57.9637 14.1778 58.8425L10.418 61.821C9.99479 62.1466 9.70996 62.5453 9.56347 63.0173C9.41699 63.4893 9.42513 63.9695 9.58789 64.4578C9.75065 64.9461 10.0436 65.3286 10.4668 65.6052C10.89 65.882 11.362 66.0203 11.8829 66.0203L16.7168 65.7761C17.14 66.6225 17.5713 67.4607 18.0108 68.2908C18.4502 69.1209 18.9304 69.9103 19.4512 70.6589L16.9121 74.7605C16.6517 75.1837 16.5377 75.6476 16.5703 76.1521C16.6029 76.6567 16.7819 77.088 17.1075 77.4461C17.8561 78.325 18.7676 78.5528 19.8418 78.1297L24.2364 76.323C24.8874 76.9741 25.5791 77.5925 26.3116 78.1785C27.044 78.7644 27.7845 79.3178 28.5332 79.8386L27.5567 84.575C27.3288 85.7143 27.6706 86.5606 28.5821 87.114C29.6237 87.7 30.5515 87.6023 31.3653 86.8211L34.9297 83.5984C35.7761 83.9565 36.6387 84.2983 37.5176 84.6238C38.3965 84.9493 39.2917 85.2423 40.2032 85.5027L40.8868 90.2878C41.017 91.4272 41.6354 92.0945 42.7422 92.2898C43.263 92.3549 43.7432 92.2817 44.1827 92.0701C44.6221 91.8585 44.9557 91.5248 45.1836 91.0691L47.4786 86.7722C47.9668 86.7722 48.4307 86.7966 48.8702 86.8455C49.3096 86.8943 49.7897 86.9187 50.3106 86.9187ZM50.3106 80.2781C46.0137 80.2781 42.0342 79.4887 38.3721 77.9099C34.7099 76.3311 31.5036 74.142 28.753 71.3425C26.0023 68.5431 23.862 65.296 22.3321 61.6013C20.8021 57.9067 20.0371 53.9435 20.0371 49.7117C20.0371 45.4474 20.8021 41.4598 22.3321 37.7488C23.862 34.0379 26.0023 30.7827 28.753 27.9831C31.5036 25.1837 34.7099 22.9946 38.3721 21.4158C42.0342 19.837 46.0137 19.0476 50.3106 19.0476C54.5749 19.0476 58.5381 19.837 62.2002 21.4158C65.8623 22.9946 69.0687 25.1837 71.8194 27.9831C74.57 30.7827 76.7103 34.0379 78.2403 37.7488C79.7702 41.4598 80.5352 45.4474 80.5352 49.7117C80.5352 53.9435 79.7702 57.9067 78.2403 61.6013C76.7103 65.296 74.57 68.5431 71.8194 71.3425C69.0687 74.142 65.8623 76.3311 62.2002 77.9099C58.5381 79.4887 54.5749 80.2781 50.3106 80.2781ZM50.1641 60.1609C52.3776 60.1609 54.347 59.518 56.0723 58.2322C57.7975 56.9464 59.1647 55.034 60.1739 52.4949H84.5391L84.4903 46.9285H60.1739C59.1647 44.422 57.7975 42.534 56.0723 41.2644C54.347 39.9949 52.3776 39.3601 50.1641 39.3601C49.8711 39.3601 49.5293 39.3845 49.1387 39.4333C48.7481 39.4822 48.2272 39.5717 47.5762 39.7019L35.3692 18.8035L30.3887 21.6355L42.7911 42.7292C41.7494 43.9012 40.9925 45.0649 40.5205 46.2205C40.0485 47.3761 39.8125 48.5723 39.8125 49.8093C39.8125 50.9487 40.0403 52.0799 40.4961 53.2029C40.9518 54.3259 41.7005 55.4897 42.7422 56.6941L29.9004 77.5925L34.7832 80.5222L47.5274 59.8191C48.1458 59.9819 48.6667 60.0795 49.0899 60.1121C49.513 60.1447 49.8711 60.1609 50.1641 60.1609ZM45.9161 49.7605C45.9161 48.5235 46.3555 47.4981 47.2344 46.6843C48.1133 45.8705 49.1224 45.4636 50.2618 45.4636C51.4662 45.4636 52.5078 45.8705 53.3868 46.6843C54.2656 47.4981 54.7051 48.5235 54.7051 49.7605C54.7051 50.9649 54.2656 51.9903 53.3868 52.8367C52.5078 53.6831 51.4662 54.1062 50.2618 54.1062C49.1224 54.1062 48.1133 53.6831 47.2344 52.8367C46.3555 51.9903 45.9161 50.9649 45.9161 49.7605Z" fill="black"/>
</svg>
