<svg xmlns="http://www.w3.org/2000/svg" width="32" height="32" viewBox="0 0 32 32">
  <g fill="none" fill-rule="evenodd">
    <polygon fill="#000" fill-opacity=".05" points="6 1 6 31 26 31 26 11 16 11 16 1"/>
    <path stroke="#151516" d="M16.5,10.5 L26.5,10.5 L26.5,31.5 L5.5,31.5 L5.5,0.5 L16.5,0.5 L16.5,10.5 Z" opacity=".65"/>
    <path fill="none" stroke="#FFF" d="M5.5,0.5 L17.2071068,0.5 L26.5,9.79289322 L26.5,31.5 L5.5,31.5 L5.5,0.5 Z"/>
    <path stroke="#000" d="M5.5,0.5 L17.2071068,0.5 L26.5,9.79289322 L26.5,31.5 L5.5,31.5 L5.5,0.5 Z" opacity=".65"/>
    <path fill="#000" fill-opacity=".2" fill-rule="nonzero" d="M16,11 L26,11 L26,12 L16,12 L15,12 L15,1 L16,1 L16,11 Z"/>
    <g fill="#151516" fill-rule="nonzero">
      <path d="M22.9989871,15.3914846 L20.0626537,14.3 L13.7169729,20.0428737 L9.83765012,17.3026407 L9,17.6962524 L9,24.0815077 L9.83258573,24.4704167 L13.7068442,21.7301838 L20.0626537,27.4674143 L23,26.3759297 L23,15.3914846 L22.9989871,15.3914846 Z M10.2514108,22.3847924 L10.2514108,19.3873246 L12.0492693,20.8766532 L10.2514108,22.3847924 Z M15.9994936,20.8766532 L19.5860946,18.3842497 L19.5860946,23.3873969 L15.9944292,20.8766532 L15.9994936,20.8766532 Z"/>
    </g>
  </g>
</svg>
