<svg xmlns="http://www.w3.org/2000/svg" width="32" height="32" viewBox="0 0 32 32">
  <g fill="none" fill-rule="evenodd">
    <polygon fill="#000" fill-opacity=".05" points="6 1 6 31 26 31 26 11 16 11 16 1"/>
    <path stroke="#151516" d="M16.5,10.5 L26.5,10.5 L26.5,31.5 L5.5,31.5 L5.5,0.5 L16.5,0.5 L16.5,10.5 Z" opacity=".65"/>
    <path fill="none" stroke="#FFF" d="M5.5,0.5 L17.2071068,0.5 L26.5,9.79289322 L26.5,31.5 L5.5,31.5 L5.5,0.5 Z"/>
    <path stroke="#000" d="M5.5,0.5 L17.2071068,0.5 L26.5,9.79289322 L26.5,31.5 L5.5,31.5 L5.5,0.5 Z" opacity=".65"/>
    <path fill="#000" fill-opacity=".2" fill-rule="nonzero" d="M16,11 L26,11 L26,12 L16,12 L15,12 L15,1 L16,1 L16,11 Z"/>
    <g fill-rule="nonzero">
      <g transform="translate(8 13)">
        <rect width="15" height="15" x=".5" y=".5" stroke="#A5A5A5"/>
        <path fill="#000" d="M9.4363803,9.96866599 C9.75289646,10.6102849 10.4088266,11.0140239 11.1242396,11.0075794 C11.8331806,11.0075794 12.2861428,10.653109 12.2861428,10.1636497 C12.2861428,9.57719861 11.8206816,9.36921594 11.0407466,9.0277444 L10.6127823,8.84425969 C9.37838513,8.31830352 8.5579535,7.65935843 8.5579535,6.2664745 C8.5579535,4.98308145 9.53587201,4.00666282 11.0637447,4.00666282 C12.0775564,3.93309984 13.0368768,4.47371462 13.4990417,5.37904846 L12.1666528,6.23447717 C11.9880334,5.78520009 11.5501632,5.49322028 11.0667444,5.50103829 C10.8586542,5.4801002 10.6513541,5.54766012 10.4955607,5.68718933 C10.3397674,5.82671854 10.249852,6.02534609 10.2478127,6.23447717 C10.2478127,6.74793438 10.5657862,6.95541709 11.2977252,7.27339059 L11.7256895,7.45637535 C13.1795684,8.07982339 14,8.71527044 14,10.1441514 C14,11.684523 12.7901008,12.5284527 11.1647363,12.5284527 C9.87141936,12.6107175 8.650464,11.9254475 8.04699608,10.7785985 L9.4363803,9.96866599 Z M3.39288393,10.1186535 C3.66186151,10.5956137 3.90634114,10.9985802 4.49279227,10.9985802 C5.05474544,10.9985802 5.40971586,10.7785985 5.40971586,9.92366974 L5.40971586,4.10665449 L7.12057329,4.10665449 L7.12057329,9.94766774 C7.12057329,11.7190201 6.08165986,12.5254529 4.56578618,12.5254529 C3.4697306,12.5847875 2.45010556,11.9637142 2,10.9625832 L3.39288393,10.1186535 Z"/>
      </g>
    </g>
  </g>
</svg>
