<svg xmlns="http://www.w3.org/2000/svg" width="32" height="32" viewBox="0 0 32 32">
  <g fill="none" fill-rule="evenodd">
    <polygon fill="#000" fill-opacity=".05" points="6 1 6 31 26 31 26 11 16 11 16 1"/>
    <path stroke="#151516" d="M16.5,10.5 L26.5,10.5 L26.5,31.5 L5.5,31.5 L5.5,0.5 L16.5,0.5 L16.5,10.5 Z" opacity=".65"/>
    <path fill="none" stroke="#FFF" d="M5.5,0.5 L17.2071068,0.5 L26.5,9.79289322 L26.5,31.5 L5.5,31.5 L5.5,0.5 Z"/>
    <path stroke="#000" d="M5.5,0.5 L17.2071068,0.5 L26.5,9.79289322 L26.5,31.5 L5.5,31.5 L5.5,0.5 Z" opacity=".65"/>
    <path fill="#000" fill-opacity=".2" fill-rule="nonzero" d="M16,11 L26,11 L26,12 L16,12 L15,12 L15,1 L16,1 L16,11 Z"/>
    <g fill="#151516" fill-rule="nonzero">
      <path d="M16.1019917,22.9410703 C15.8157182,23.0726013 15.5020672,23.2440084 14.87417,23.5886079 C14.6361047,23.7225196 14.3873265,23.8564313 14.155808,23.9826059 C14.1397386,23.9665365 14.1230741,23.9463009 14.1070046,23.9296364 C12.864899,22.6024224 10.567569,21.6650403 10.6651758,19.8825265 C10.7014807,19.2332034 10.9246669,17.528656 15.0771207,15.4586783 C18.4945479,13.7743664 21.2138486,14.2409744 21.6834324,15.2759632 C22.3583475,16.7513728 20.2258777,19.4968607 16.6965598,19.8950249 C15.9053438,20.0555103 15.0840617,19.8479455 14.4641026,19.3308102 C14.2772213,19.1278596 14.2492487,19.1159563 14.1802097,19.1564274 C14.0665336,19.2159437 14.1397386,19.3998491 14.1802097,19.505193 C14.4521959,19.9976356 14.9117952,20.3591326 15.4544542,20.5074479 C16.8433328,20.8076459 18.2914111,20.664212 19.5944095,20.0973804 C21.7334261,19.2695084 23.4034541,16.9680122 22.9142299,15.0384931 C22.4232203,13.0821916 19.1760098,12.4370347 16.1037772,13.528564 C14.1797781,14.1769311 12.4021776,15.1975853 10.8722926,16.5323528 C9.17964839,18.1154869 8.91182494,19.4915043 9.02133497,20.0676223 C9.41533302,22.1131982 12.2352163,23.4445784 13.3660264,24.4307638 C13.3065101,24.4634978 13.2565164,24.4902801 13.2118792,24.5158721 C12.6476644,24.796194 10.4967446,25.9204573 9.96050253,27.1095934 C9.35165056,28.457043 10.0581093,29.4229929 10.5247173,29.5527384 C11.9662622,29.8980401 13.468003,29.2897885 14.2629374,28.0386432 C14.9312623,27.011495 15.0554872,25.7225778 14.5956336,24.5866966 C14.7293108,24.4800691 14.8718778,24.3850908 15.0217705,24.3028037 C15.3098295,24.132587 15.5841997,23.964751 15.8276215,23.8350054 C16.6610756,23.4446141 17.5706273,23.2435981 18.4909769,23.246389 C20.4228767,23.4737414 20.8043763,24.6789469 20.7311712,25.1866211 C20.6618841,25.5510416 20.4383509,25.8676774 20.1181531,26.0549642 C19.9842414,26.1400726 19.9396042,26.1686404 19.9515074,26.229347 C19.9675768,26.3186215 20.0324496,26.3144554 20.1461258,26.298386 C20.7402433,26.1106164 21.1578198,25.5769414 21.197184,24.9551026 C21.2567004,23.7647762 20.1217241,22.4589881 18.1124531,22.4708913 C17.5108159,22.4719255 16.9151878,22.5906064 16.3591023,22.8202521 C16.2698278,22.8571523 16.1831323,22.8968298 16.0990159,22.9392848 L16.1019917,22.9410703 Z M13.2303292,27.6065547 C12.5887433,28.3046812 11.6959985,28.5683385 11.3103327,28.3451523 C10.8937184,28.107087 11.0585787,27.0744788 11.8459796,26.3358813 C12.3123266,25.915701 12.8163757,25.5393576 13.3517425,25.2116179 C13.4451832,25.1521016 13.583261,25.0735401 13.7493116,24.9735527 C13.7778794,24.9574832 13.7939488,24.949151 13.7939488,24.949151 L13.8915556,24.8896346 C14.1774732,25.8482436 13.9247791,26.8865412 13.2303292,27.6065547 Z"/>
    </g>
  </g>
</svg>
