<svg xmlns="http://www.w3.org/2000/svg" width="32" height="32" viewBox="0 0 32 32">
  <g fill="none" fill-rule="evenodd">
    <polygon fill="#000" fill-opacity=".05" points="6 1 6 31 26 31 26 11 16 11 16 1"/>
    <path stroke="#151516" d="M16.5,10.5 L26.5,10.5 L26.5,31.5 L5.5,31.5 L5.5,0.5 L16.5,0.5 L16.5,10.5 Z" opacity=".65"/>
    <path fill="none" stroke="#FFF" d="M5.5,0.5 L17.2071068,0.5 L26.5,9.79289322 L26.5,31.5 L5.5,31.5 L5.5,0.5 Z"/>
    <path stroke="#000" d="M5.5,0.5 L17.2071068,0.5 L26.5,9.79289322 L26.5,31.5 L5.5,31.5 L5.5,0.5 Z" opacity=".65"/>
    <path fill="#000" fill-opacity=".2" fill-rule="nonzero" d="M16,11 L26,11 L26,12 L16,12 L15,12 L15,1 L16,1 L16,11 Z"/>
    <g fill="#151516" fill-rule="nonzero">
      <g transform="translate(7 16)">
        <path d="M3.6 3.07992857C4.00038092 3.02958662 4.40427326 3.14138032 4.72178571 3.39042857 4.92728769 3.70697139 4.97632972 4.10025528 4.85485714 4.45757143 4.80226246 4.89173309 4.59229561 5.29153924 4.26471429 5.58128571 3.86967362 5.83575665 3.40269424 5.95509583 2.934 5.92135714L2.034 5.92135714 2.58685714 3.08571429 3.6 3.07992857zM0 8.79235714L1.47857143 8.79235714 1.82892857 6.99235714 3.09342857 6.99235714C3.55928029 7.00422201 4.02417478 6.94415868 4.47171429 6.81428571 4.83927562 6.69293903 5.17524507 6.49135736 5.45528571 6.22414286 5.9396145 5.78862274 6.2660423 5.20494089 6.38357143 4.56428571 6.57172289 3.91757209 6.44040322 3.21990647 6.03 2.68585714 5.53619697 2.19649926 4.85174632 1.94976773 4.15928571 2.0115L1.32235714 2.0115 0 8.79235714zM7.46807143.207642857L8.93571429.207642857 8.58021429 2.00764286 9.88585714 2.00764286C10.4857089 1.94483649 11.0883581 2.0972646 11.5862143 2.43771429 11.9214672 2.81882053 12.0282755 3.34967745 11.8665 3.83078571L11.2532143 6.98657143 9.76821429 6.98657143 10.3519286 3.98635714C10.4341817 3.75451654 10.4072462 3.49792078 10.2786429 3.28821429 10.0658479 3.13553335 9.80282439 3.06977747 9.54321429 3.10435714L8.37128571 3.10435714 7.61592857 6.98978571 6.14507143 6.98978571 7.46807143.207642857zM15.1322143 3.07992857C15.5325952 3.02958662 15.9364875 3.14138032 16.254 3.39042857 16.459502 3.70697139 16.508544 4.10025528 16.3870714 4.45757143 16.3344767 4.89173309 16.1245099 5.29153924 15.7969286 5.58128571 15.4011687 5.83629982 14.9331972 5.9556619 14.4636429 5.92135714L13.5642857 5.92135714 14.1158571 3.0825 15.1322143 3.07992857zM11.5322143 8.79235714L13.0107857 8.79235714 13.3611429 6.99235714 14.6262857 6.99235714C15.0929963 7.00448739 15.5587785 6.94442144 16.0071429 6.81428571 16.3747042 6.69293903 16.7106736 6.49135736 16.9907143 6.22414286 17.4738562 5.78815218 17.7991242 5.20452322 17.9157857 4.56428571 18.1039372 3.91757209 17.9726175 3.21990647 17.5622143 2.68585714 17.0682195 2.19738231 16.3840889 1.95138692 15.6921429 2.01342857L12.8507143 2.01342857 11.5322143 8.79235714z"/>
      </g>
    </g>
  </g>
</svg>
