<svg xmlns="http://www.w3.org/2000/svg" width="32" height="32" viewBox="0 0 32 32">
  <g fill="none" fill-rule="evenodd">
    <polygon fill="#000" fill-opacity=".05" points="6 1 6 31 26 31 26 11 16 11 16 1"/>
    <path stroke="#151516" d="M16.5,10.5 L26.5,10.5 L26.5,31.5 L5.5,31.5 L5.5,0.5 L16.5,0.5 L16.5,10.5 Z" opacity=".65"/>
    <path fill="none" stroke="#FFF" d="M5.5,0.5 L17.2071068,0.5 L26.5,9.79289322 L26.5,31.5 L5.5,31.5 L5.5,0.5 Z"/>
    <path stroke="#000" d="M5.5,0.5 L17.2071068,0.5 L26.5,9.79289322 L26.5,31.5 L5.5,31.5 L5.5,0.5 Z" opacity=".65"/>
    <path fill="#000" fill-opacity=".2" fill-rule="nonzero" d="M16,11 L26,11 L26,12 L16,12 L15,12 L15,1 L16,1 L16,11 Z"/>
    <g fill="#797979" fill-rule="nonzero">
      <path d="M16,25.852459 L19.592686,24.8549811 L20.0781841,19.4703657 L13.6872636,19.4703657 L13.5283733,17.6784363 L20.2370744,17.6784363 L20.4136192,15.9218159 L11.5863808,15.9218159 L12.0807062,21.2269861 L18.1626734,21.2269861 L17.9596469,23.5044136 L16,24.0340479 L14.0403531,23.5044136 L13.9167718,22.0390921 L12.1513241,22.0390921 L12.407314,24.8549811 L16,25.852459 Z M9,13 L23,13 L21.7377049,27.3001261 L16,28.889029 L10.2622951,27.3001261 L9,13 Z"/>
    </g>
  </g>
</svg>
