<svg xmlns="http://www.w3.org/2000/svg" width="32" height="32" viewBox="0 0 32 32">
  <g fill="none" fill-rule="evenodd">
    <polygon fill="#000" fill-opacity=".05" points="6 1 6 31 26 31 26 11 16 11 16 1"/>
    <path stroke="#151516" d="M16.5,10.5 L26.5,10.5 L26.5,31.5 L5.5,31.5 L5.5,0.5 L16.5,0.5 L16.5,10.5 Z" opacity=".65"/>
    <path fill="none" stroke="#FFF" d="M5.5,0.5 L17.2071068,0.5 L26.5,9.79289322 L26.5,31.5 L5.5,31.5 L5.5,0.5 Z"/>
    <path stroke="#000" d="M5.5,0.5 L17.2071068,0.5 L26.5,9.79289322 L26.5,31.5 L5.5,31.5 L5.5,0.5 Z" opacity=".65"/>
    <path fill="#000" fill-opacity=".2" fill-rule="nonzero" d="M16,11 L26,11 L26,12 L16,12 L15,12 L15,1 L16,1 L16,11 Z"/>
    <g fill="#000" font-family="RobotoMono-Bold, Roboto Mono" font-size="13" font-weight="bold" letter-spacing=".542">
      <text>
        <tspan x="7.657" y="25.5">MD</tspan>
      </text>
    </g>
  </g>
</svg>
