<svg xmlns="http://www.w3.org/2000/svg" xmlns:xlink="http://www.w3.org/1999/xlink" width="32" height="32" viewBox="0 0 32 32">
  <defs>
    <path id="file-typescript-logo-a" d="M10.6702504,5 L10.6702504,5.00022224 C10.8186268,5.00068719 10.9872475,5.00832181 11.1140827,5.02207329 C11.6305787,5.07795149 12.0328077,5.30078165 12.375002,5.7204939 C12.5454126,5.92956878 12.6037142,6.02105824 12.5912901,6.06018512 C12.583285,6.08542929 12.4663663,6.1691806 12.0946287,6.4159526 C11.7294635,6.65837084 11.6118098,6.73097761 11.5845041,6.73097761 C11.556802,6.73097761 11.4991091,6.67159897 11.4159176,6.55757467 C11.2557086,6.33802121 11.0921433,6.23781666 10.839273,6.20440124 C10.567338,6.16838798 10.3234218,6.25410151 10.2039591,6.42772821 C10.1018545,6.57605915 10.0864305,6.81478733 10.1675897,6.98821682 C10.2616125,7.18912652 10.4318146,7.30019269 11.0840771,7.58621292 C11.8363508,7.91606268 12.2175695,8.14184717 12.4952159,8.42203459 C12.7942064,8.72377459 12.9456851,9.0721771 12.9922187,9.56497019 C13.0149382,9.80515467 12.9871808,10.0898475 12.9184438,10.3213018 C12.7498801,10.8886927 12.2950003,11.3041574 11.6282467,11.4996969 C11.4439443,11.553732 11.2724451,11.5860135 11.1028005,11.5984338 C10.8438433,11.6175 10.4731373,11.6069941 10.2500265,11.5745086 C9.68555584,11.4922993 9.04834563,11.1638224 8.7306128,10.7913643 C8.57463624,10.6085485 8.37551279,10.3076732 8.37551279,10.2547303 C8.37551279,10.2291877 8.38816901,10.2146933 8.43832362,10.1828062 C8.5870376,10.0883321 9.4393072,9.6011177 9.45584235,9.6011177 C9.46583361,9.6011177 9.51035147,9.65359785 9.55472712,9.7177057 C9.65527299,9.86287373 9.90249629,10.1123877 10.0281786,10.1956323 C10.1308559,10.2636237 10.2621397,10.3182314 10.4180062,10.3576275 C10.5072771,10.3798817 10.5545426,10.383849 10.7493275,10.383849 C10.9483372,10.3837823 10.9891744,10.380432 11.0782064,10.3565163 C11.3137034,10.2931328 11.4975394,10.1619893 11.5754367,10.001788 C11.6095836,9.9325603 11.6102504,9.92391727 11.6102504,9.7560172 L11.6102504,9.58195057 L11.5684005,9.49891831 C11.4670127,9.2976635 11.2485515,9.15959118 10.5578978,8.86041867 C10.240639,8.72299107 9.8520819,8.52922258 9.70038324,8.43281809 C9.35419932,8.21281711 9.11425756,7.96130074 8.95679435,7.65342832 C8.80016549,7.3472625 8.77680769,7.23329889 8.77642845,6.77293139 C8.77604275,6.41255607 8.77544544,6.41697808 8.85005539,6.18695741 C8.91775091,5.97822764 9.05632764,5.74505923 9.20930435,5.58247619 C9.51463961,5.25790933 9.96070572,5.04933127 10.438291,5.00784168 C10.4993801,5.00206045 10.5811911,4.99979862 10.6702079,5.00006409 L10.6702504,5 Z M6.56073381,5.07118459 L6.56088209,5.07118459 C7.48066897,5.07164993 8.00793557,5.07483295 8.01639277,5.08014733 C8.03233478,5.09001912 8.03431786,5.17005912 8.03431786,5.68094986 L8.03431786,6.27033706 L7.11650307,6.27367026 L6.19868828,6.27700346 L6.19868828,8.88292089 C6.19868828,10.3162077 6.19578552,11.4973714 6.19179964,11.5078007 C6.18530883,11.5253404 6.11471776,11.526689 5.51753704,11.526689 L4.85051805,11.526689 L4.84362941,11.4997269 C4.83917516,11.4849321 4.83592767,10.3037347 4.83585182,8.87484711 L4.83562959,6.27685593 L3.91781479,6.27359668 L3,6.27026349 L3,5.68785442 C3,5.22593201 3.00319098,5.10222176 3.01548085,5.08993417 C3.02810976,5.07691311 3.49651729,5.07355564 5.51479205,5.0715646 C5.90393703,5.07117246 6.25413338,5.07100445 6.56075429,5.07119408 L6.56073381,5.07118459 Z"/>
  </defs>
  <g fill="none" fill-rule="evenodd">
    <polygon fill="#000" fill-opacity=".05" points="6 1 6 31 26 31 26 11 16 11 16 1"/>
    <path stroke="#151516" d="M16.5,10.5 L26.5,10.5 L26.5,31.5 L5.5,31.5 L5.5,0.5 L16.5,0.5 L16.5,10.5 Z" opacity=".65"/>
    <path fill="none" stroke="#FFF" d="M5.5,0.5 L17.2071068,0.5 L26.5,9.79289322 L26.5,31.5 L5.5,31.5 L5.5,0.5 Z"/>
    <path stroke="#000" d="M5.5,0.5 L17.2071068,0.5 L26.5,9.79289322 L26.5,31.5 L5.5,31.5 L5.5,0.5 Z" opacity=".65"/>
    <path fill="#000" fill-opacity=".2" fill-rule="nonzero" d="M16,11 L26,11 L26,12 L16,12 L15,12 L15,1 L16,1 L16,11 Z"/>
    <g>
      <g transform="translate(8 13)">
        <polygon fill="#151516" points="0 0 0 16 16 16 16 0"/>
        <use fill="#006FFF" xlink:href="#file-typescript-logo-a"/>
        <use fill="#FFF" xlink:href="#file-typescript-logo-a"/>
      </g>
    </g>
  </g>
</svg>
