<?xml version="1.0" encoding="UTF-8"?>
<svg width="18px" height="19px" viewBox="0 0 18 19" version="1.1" xmlns="http://www.w3.org/2000/svg" xmlns:xlink="http://www.w3.org/1999/xlink">
    <title>folder-generic-light</title>
    <g id="Page-1" stroke="none" stroke-width="1" fill="none" fill-rule="evenodd">
        <g id="folder-generic-light">
            <rect id="Rectangle" fill-opacity="0" fill="#D8D8D8" x="0" y="0" width="18" height="19"></rect>
            <path d="M3.21223424,16.8929825 L14.9991487,16.8929825 C16.2602319,16.8929825 17,16.1602658 17,14.708925 L17,7.4733607 C17,6.02201845 16.2531617,5.28929161 14.7877658,5.28929161 L8.02420443,5.28929161 C7.54512268,5.28929161 7.25625672,5.17657329 6.9039903,4.87362475 L6.47422643,4.52135833 C6.00924169,4.12681533 5.64991956,4 4.95244245,4 L2.94450657,4 C1.71157412,4 1,4.70453283 1,6.1206542 L1,14.708925 C1,16.1673114 1.7397537,16.8929825 3.21223424,16.8929825 Z M2.1342967,6.18405466 C2.1342967,5.48656312 2.50066012,5.12725541 3.17701337,5.12725541 L4.66357648,5.12725541 C5.12857565,5.12725541 5.4103859,5.24702946 5.7696936,5.549978 L6.19945747,5.9092857 C6.65741536,6.2897317 7.03080564,6.42360274 7.72829718,6.42360274 L14.7665553,6.42360274 C15.4640469,6.42360274 15.8657466,6.80404874 15.8657466,7.53676115 L15.8657466,7.93834544 L2.1342967,7.93834544 L2.1342967,6.18405466 Z M3.22633124,15.7586815 C2.52178399,15.7586815 2.1342967,15.3852782 2.1342967,14.6525629 L2.1342967,9.0022004 L15.8657466,9.0022004 L15.8657466,14.6596071 C15.8657466,15.3852782 15.4640469,15.7586815 14.7665553,15.7586815 L3.22633124,15.7586815 Z" id="File" fill="#FFFFFF" fill-rule="nonzero" opacity="0.5"></path>
        </g>
    </g>
</svg>