<?xml version="1.0" encoding="UTF-8"?>
<svg width="16px" height="16px" viewBox="0 0 16 16" version="1.1" xmlns="http://www.w3.org/2000/svg" xmlns:xlink="http://www.w3.org/1999/xlink">
    <title>file-generic</title>
    <g id="Page-1" stroke="none" stroke-width="1" fill="none" fill-rule="evenodd">
        <g id="file-generic">
            <rect id="Box" fill-opacity="0" fill="#D8D8D8" x="0" y="0" width="16" height="16"></rect>
            <path d="M6.1688406,16 L13.5988824,16 C15.0471069,16 15.767723,15.2653994 15.767723,13.8101741 L15.767723,7.45756179 C15.767723,6.55504716 15.6627821,6.16325253 15.1030734,5.5895594 L11.248129,1.66464955 C10.7164179,1.1189397 10.275649,1 9.4920597,1 L6.1688406,1 C4.72760836,1 4,1.74160716 4,3.19683821 L4,13.8101741 C4,15.2723916 4.72061612,16 6.1688406,16 Z M6.21781492,14.8736076 C5.49719881,14.8736076 5.12639522,14.4888124 5.12639522,13.7891859 L5.12639522,3.21782926 C5.12639522,2.52519642 5.49719881,2.12640955 6.22480716,2.12640955 L9.33814448,2.12640955 L9.33814448,6.19123582 C9.33814448,7.07277373 9.77891343,7.50653612 10.6534448,7.50653612 L14.6413277,7.50653612 L14.6413277,13.7891859 C14.6413277,14.4888124 14.2705242,14.8736076 13.5429015,14.8736076 L6.21781492,14.8736076 Z M10.7793767,6.45010627 C10.4995295,6.45010627 10.3945887,6.33815881 10.3945887,6.05831164 L10.3945887,2.34328358 L14.4244394,6.45010627 L10.7793767,6.45010627 Z" id="File" fill="#FFFFFF" fill-rule="nonzero" opacity="0.5"></path>
        </g>
    </g>
</svg>