<?xml version="1.0" encoding="UTF-8"?>
<svg width="16px" height="16px" viewBox="0 0 16 16" version="1.1" xmlns="http://www.w3.org/2000/svg" xmlns:xlink="http://www.w3.org/1999/xlink">
    <title>folder-generic</title>
    <g id="Page-1" stroke="none" stroke-width="1" fill="none" fill-rule="evenodd">
        <g id="folder-generic">
            <rect id="Box" fill-opacity="0" fill="#D8D8D8" x="0" y="0" width="16" height="16"></rect>
            <path d="M3.0739696,14.0871711 L14.1242019,14.0871711 C15.3064674,14.0871711 16,13.4002492 16,12.0396172 L16,5.25627566 C16,3.8956423 15.2998391,3.20871088 13.9260304,3.20871088 L7.58519165,3.20871088 C7.13605251,3.20871088 6.86524067,3.10303746 6.53499091,2.8190232 L6.13208728,2.48877344 C5.69616408,2.11888937 5.35929959,2 4.7054148,2 L2.82297491,2 C1.66710073,2 1,2.66049953 1,3.98811331 L1,12.0396172 C1,13.4068544 1.69351909,14.0871711 3.0739696,14.0871711 Z M2.06340316,4.04755124 C2.06340316,3.39365293 2.40686886,3.05680195 3.04095003,3.05680195 L4.43460295,3.05680195 C4.87053967,3.05680195 5.13473678,3.16909012 5.47158775,3.45310438 L5.87449138,3.78995534 C6.3038269,4.14662347 6.65388029,4.27212757 7.30777861,4.27212757 L13.9061456,4.27212757 C14.560044,4.27212757 14.9366374,4.62879569 14.9366374,5.31571358 L14.9366374,5.69219885 L2.06340316,5.69219885 L2.06340316,4.04755124 Z M3.08718554,13.0237639 C2.42667249,13.0237639 2.06340316,12.6736983 2.06340316,11.9867777 L2.06340316,6.68956288 L14.9366374,6.68956288 L14.9366374,11.9933817 C14.9366374,12.6736983 14.560044,13.0237639 13.9061456,13.0237639 L3.08718554,13.0237639 Z" id="Folder" fill="#FFFFFF" fill-rule="nonzero" opacity="0.6"></path>
        </g>
    </g>
</svg>